<svg xmlns="http://www.w3.org/2000/svg" viewBox="0 0 292.15 335.18"><defs><style>.cls-1{fill:#4a7bac;}.cls-2{fill:#fce5ad;}.cls-3{fill:#181513;}.cls-4{fill:#f3c9b2;}.cls-5{fill:#fefefe;}</style></defs><g id="Layer_2" data-name="Layer 2"><g id="Layer_1-2" data-name="Layer 1"><path class="cls-1" d="M288.24,334.55c-1.49.1-3,.28-4.47.28q-138.88,0-277.78,0c-.67,0-1.33-.06-2-.09,2.86-10.94,5.49-21.95,8.63-32.82,6-20.77,18.54-36.85,37.19-47.53S87.93,233.9,107,223.73c1.59-.85,3.11-1.77,5.14-1.56A309.49,309.49,0,0,0,175,222a11.31,11.31,0,0,1,6.67,1.4c17.13,8.92,34.28,17.81,51.55,26.48,14.36,7.2,26.79,16.41,36,29.93C280.55,296.38,283.27,315.81,288.24,334.55Z"/><path class="cls-2" d="M106.91,218.84l-9.94,0c-.86-8.61-5-15.7-10.2-22.34-3.88-5-8-9.8-10.69-15.58-.68-1.44-1.33-2.88-3.27-1.91-2.13,1.07-.77,2.52-.2,3.77,2.37,5.19,5.89,9.61,9.4,14,5.19,6.56,10,13.31,11,22l-27.85,0c-.14-1.31-.29-2.39-1.81-3.15-8.64-4.31-12.51-12.09-14.6-21a92.21,92.21,0,0,1,0-43.07c4.71-19.37,6.76-38.85,7.53-58.71A108.89,108.89,0,0,1,75.05,35.2C85,20.48,98.61,10.92,116.51,8.33c4.74-.69,9.49-.86,14.25-2,28.67-6.68,53.29.07,73.11,22.6C218,45,226,63.55,229.13,84.51c4.2,28.36,9.61,56.43,19.69,83.42A57,57,0,0,1,252.54,187c.19,12.51-1.62,24.08-14.66,30.21-.46.22-.62,1.1-.92,1.68H218.23c-4.08-8.31-.19-14.38,5.37-20.23,5.35-5.62,8.51-12.58,10.94-19.87.45-1.38,1.34-2.95-.86-3.67s-2.43,1-2.87,2.44c-2.68,8.54-7.43,15.78-13.44,22.39-4.91,5.43-6.49,11.83-3.23,18.85l-31.47.18c-2.43-.27-4.13-2.05-6.18-3.08-3.82-1.91-3.94-12.27-.2-14.39,15.42-8.75,26.72-20.79,31-38.49.49-2.07,1.14-2.83,3.66-2.23,10.17,2.43,18-1.88,21.54-11.83a45.77,45.77,0,0,0,1.37-26.09c-2-8.42-8.68-12.77-17.08-11.33-2,.35-2.95.32-3.13-2.15-.88-12.26-7.21-21.49-16.5-29-9.75-7.94-20.93-13.56-31.79-19.69C151.85,53,138.27,45.52,128.29,33.15c-2.34-2.9-3.65-.52-4.92,1.21-8,10.91-16.81,21.1-25.59,31.33-10.9,12.7-19.66,26.46-22,43.47-.25,1.76-.73,2.7-2.87,2.2-9.37-2.21-15,5.33-16.75,12a43.18,43.18,0,0,0,1.93,26.39c3,7.89,9.19,12.07,17.23,11.82,2.55-.08,3.48.69,4.17,2.95,5.29,17.23,15.92,30.12,31.88,38.53,2,1,2.69,2.23,3,4.53C115.27,213.83,112.68,217.29,106.91,218.84ZM60.47,181.29c.5,13.89,6.74,26.76,16.21,33.37,1.25.87,2.57,2.69,4.09.38,1.29-2-.59-2.56-1.68-3.43-9.94-7.9-14-18.57-15-30.88-.15-1.95,2.29-6-1.93-5.72C59,175.24,61.22,179.16,60.47,181.29Zm135,26.55a15.13,15.13,0,0,0,.44,3.56c.46,1.37.25,3.86,2.7,3.27,2.17-.52,1.77-2.31,1.15-4-1.21-3.4-.25-6.51,1.47-9.53,2.21-3.86,5.6-6.56,8.88-9.37a22.24,22.24,0,0,0,7.68-12.51c.26-1.24.81-2.8-1.25-3.11a2,2,0,0,0-2.48,1.85c-1,6.07-5.36,9.72-9.65,13.48C199.6,195.69,195.49,200.44,195.49,207.84ZM147.18,10.6a25,25,0,0,0-12.46,3.07c-1.09.59-2.73.93-1.76,2.84.78,1.53,1.88,1.6,3.3.83,8-4.29,15.65-3.73,23,1.44,1.63,1.15,2.48.13,3.23-.93,1-1.51-.41-2-1.32-2.6A25.29,25.29,0,0,0,147.18,10.6Zm-5,9.84c-2.14.2-4.3.27-6.41.65-1.29.23-3.39-.17-3.23,2.13.18,2.53,2,2,3.71,1.72A26.38,26.38,0,0,1,157,29.64c1.42,1,2.5,1.61,3.69-.11s-.27-2.38-1.29-3.1A31.64,31.64,0,0,0,142.17,20.44ZM114,27.08c-.47-2.22-2.19-1.33-3.73-.76A42.69,42.69,0,0,0,91.67,40c-.78,1-2,1.94-.27,3.27,1.44,1.11,2.29.63,3.27-.61a38.68,38.68,0,0,1,17.89-12.93A2,2,0,0,0,114,27.08Zm-3.38-10.47a21.51,21.51,0,0,0-15,6.06c-.89.84-2.51,1.57-1.1,3.18s2.44,1,3.73-.25a18.7,18.7,0,0,1,12.61-5.24c1.7-.05,3.64.34,3.5-2.14C114.28,15.4,111.86,17.22,110.65,16.61Z"/><path class="cls-3" d="M106.91,218.84c5.77-1.55,8.36-5,7.46-11.22-.33-2.3-1.07-3.51-3-4.53-16-8.41-26.59-21.3-31.88-38.53-.69-2.26-1.62-3-4.17-2.95-8,.25-14.21-3.93-17.23-11.82a43.18,43.18,0,0,1-1.93-26.39c1.71-6.71,7.38-14.25,16.75-12,2.14.5,2.62-.44,2.87-2.2,2.36-17,11.12-30.77,22-43.47,8.78-10.23,17.63-20.42,25.59-31.33,1.27-1.73,2.58-4.11,4.92-1.21,10,12.37,23.56,19.87,37.05,27.49,10.86,6.13,22,11.75,31.79,19.69,9.29,7.56,15.62,16.79,16.5,29.05.18,2.47,1.1,2.5,3.13,2.15,8.4-1.44,15.11,2.91,17.08,11.33A45.77,45.77,0,0,1,232.47,149c-3.53,10-11.37,14.26-21.54,11.83-2.52-.6-3.17.16-3.66,2.23-4.26,17.7-15.56,29.74-31,38.49-3.74,2.12-3.62,12.48.2,14.39,2,1,3.75,2.81,6.18,3.08,10.18,6.48,21.46,10.9,31.9,16.89,13.7,7.85,28.69,13.37,41.42,23l2,1.93c7.65,7.72,14.81,15.86,19.85,25.56a83.69,83.69,0,0,1,7.36,19.47,1.76,1.76,0,0,0,.63,2.05c2,7.77,3.95,15.54,6,23.29.88,3.38.2,5-3.57,3.41-5-18.74-7.69-38.17-19-54.79-9.22-13.52-21.65-22.73-36-29.93-17.27-8.67-34.42-17.56-51.55-26.48A11.31,11.31,0,0,0,175,222a309.49,309.49,0,0,1-62.81.22c-2-.21-3.55.71-5.14,1.56-19.1,10.17-38.44,19.93-57.22,30.68s-31.17,26.76-37.19,47.53C9.48,312.81,6.85,323.82,4,334.76c-1.95.63-3.74.94-4-1.94l.69-2.05C2.8,322,4.35,313,7.15,304.47c4.28-13.09,8.61-26.34,19.31-36.07.49-.53,1-1,1.48-1.57,12.67-15,30.69-21.7,47.09-31C85.51,229.84,96.44,224.79,106.91,218.84ZM128.22,130c-1.74,1.6-2.91,2.79-4.18,3.84-11.41,9.38-29.14,4.71-33.51-9.35-1.51-4.87-3.89-6.38-8.37-7.13-3.25-.55-3.54.58-3.66,3.22A150,150,0,0,0,81,155.8c5,25.69,23.66,44.52,49.18,49.77,27.34,5.62,59.32-9.8,70.1-34.45,7.2-16.46,7.45-34.34,9-51.9.2-2.31-1.19-2.33-2.83-2.15-4.47.5-8.93,1.14-13.41,1.39-3.17.18-4.41,1.47-5.24,4.61a21,21,0,0,1-20.24,15.61c-9.41.12-18.16-5.89-20.46-15.21-1.15-4.68-3.58-5.76-7.57-5.67-1.66,0-3.32.3-5,.28-4.15,0-3.92,3.4-4.15,5.81-.34,3.68,2.7,1.49,4.24,1.88,1.13.28,2.32.31,3.43.63s2.46.48,1.92,2.21a2.11,2.11,0,0,1-2.5,1.7c-5.26-.17-5.52.36-3.17,5.17.44.9,1,1.74,1.5,2.6a2,2,0,0,1-.68,3c-1.44,1.07-2.06,0-2.74-1C130.38,137.22,129.42,133.88,128.22,130Zm63.5-15.17c5.15-.57,9.77-1.3,14.41-1.54,3.53-.18,3.92-1.78,3.52-4.82a34.28,34.28,0,0,0-9.22-19.5c-9.77-10.4-22.36-16.61-34.53-23.45-13.49-7.58-27.2-14.86-37.8-26.54-1.83-2-2.56-.77-3.73.67-9,11.09-18.17,22.12-27.25,33.18C88.77,83,82.4,94.16,80,107.29c-.41,2.28-2.34,5.6,2.19,6.14,3.09.38,6.53,3.25,8.18-3,2.27-8.63,9-13.5,17.85-14.48,8.71-1,16.89,2.11,20,10,3,7.65,7.49,8.49,14.17,8.31,2.7-.07,3.65-.58,4.46-3.09,3.13-9.7,10.85-15.44,20.33-15.48s17.62,6,20.59,15.8C188.6,114.07,189.45,115.47,191.72,114.78ZM128,117.06a17.52,17.52,0,0,0-35,.07,17.68,17.68,0,0,0,17.84,17.56A17.5,17.5,0,0,0,128,117.06Zm39.62,17.64a17.46,17.46,0,1,0-.55-34.92,17.46,17.46,0,1,0,.55,34.92ZM231,133.64c.1-6.26-.25-12.34-5.56-16.83-2.93-2.49-6-2.18-9.35-1-3.1,1.1-2.87,3.64-3.06,6.14-.79,10.26-1.54,20.54-3.48,30.65-.55,2.9.41,3.84,2.87,4.6,6.11,1.9,12-.84,15.5-7.55C230.47,144.63,230.92,139.16,231,133.64Zm-171.84-.85c.22,5.32.38,10.16,2.19,14.7,2.07,5.16,5.39,9.17,11.19,10.27,3.2.61,5-.14,4.24-4.18a141.42,141.42,0,0,1-2.14-33.13c.2-4.76-1.84-6.5-6.49-5.36-2.92.71-4.82,2.77-6.36,5.22C59.26,124.31,59.34,128.83,59.14,132.79Zm110.93,72.37c-23.6,6.35-28.83,6.75-43.81,3.57-7.65-1.63-7.32-1.6-8.16,6.28-.39,3.64.87,3.88,3.73,4,11.79.54,23.58.82,35.37.2,4.3-.23,10.09.88,12.42-1.43C171.74,215.7,170.07,209.79,170.07,205.16Z"/><path class="cls-3" d="M237,218.88c.3-.58.46-1.46.92-1.68,13-6.13,14.85-17.7,14.66-30.21a57,57,0,0,0-3.72-19.06c-10.08-27-15.49-55.06-19.69-83.42C226,63.55,218,45,203.87,29,184.05,6.43,159.43-.32,130.76,6.36c-4.76,1.11-9.51,1.28-14.25,2C98.61,10.92,85,20.48,75.05,35.2A108.89,108.89,0,0,0,56.24,92.9c-.77,19.86-2.82,39.34-7.53,58.71a92.21,92.21,0,0,0,0,43.07c2.09,8.88,6,16.66,14.6,21,1.52.76,1.67,1.84,1.81,3.15-2.86,2.2-5.18.44-7.42-1.12-5.41-3.78-7.94-9.57-10.77-15.25-4-8.08-4.21-16.76-4.26-25.37-.06-13.51-.26-27.24,4.61-40.06,2.89-7.63,3.79-15.22,3.84-23.14a2.65,2.65,0,0,0,.28-3.11V109c0-.74.07-1.47.11-2.21q.3-8,.61-15.9a1.79,1.79,0,0,0,.41-2.1A115.42,115.42,0,0,1,66,41.26,74.76,74.76,0,0,1,79.33,23.32a1.89,1.89,0,0,0,1.57-1.49C92.41,9.34,107.15,5.11,123.59,3.74,131.7,3.07,139.7.37,148,.05a76.25,76.25,0,0,1,37.47,8.31c8,4,14.82,10.44,20.79,17.4.65.75,1.41,1.41,2.12,2.1a6.57,6.57,0,0,0,2.52,3c2.77,5.81,7.28,10.46,10.38,16.16,4,7.38,6.43,15.11,8.66,23,2.56,9.08,3.78,18.43,5.41,27.7a1.87,1.87,0,0,0,.51,2.09c.15,1.31.3,2.62.44,3.93a1.92,1.92,0,0,0,.53,2.07l1.5,8.92a2.07,2.07,0,0,0,.56,2.07c2.19,17,8,33,13.17,49.15,2.17,6.78,4.11,13.58,4.41,20.74a3.55,3.55,0,0,0,.44,3.1c-.58,7.65-1.9,15.13-6.06,21.76a21.4,21.4,0,0,1-11.36,9C237.87,221.2,237.52,219.85,237,218.88Z"/><path class="cls-3" d="M214.14,218.79c-3.26-7-1.68-13.42,3.23-18.85,6-6.61,10.76-13.85,13.44-22.39.44-1.4.68-3.16,2.87-2.44s1.31,2.29.86,3.67c-2.43,7.29-5.59,14.25-10.94,19.87-5.56,5.85-9.45,11.92-5.37,20.23C216.82,221.19,215.48,219.85,214.14,218.79Z"/><path class="cls-3" d="M93,218.76c-1-8.66-5.77-15.41-11-22-3.51-4.43-7-8.85-9.4-14-.57-1.25-1.93-2.7.2-3.77,1.94-1,2.59.47,3.27,1.91,2.69,5.78,6.81,10.59,10.69,15.58,5.15,6.64,9.34,13.73,10.2,22.34A5.68,5.68,0,0,1,93,218.76Z"/><path class="cls-3" d="M60.47,181.29c.75-2.13-1.47-6,1.73-6.28,4.22-.3,1.78,3.77,1.93,5.72,1,12.31,5,23,15,30.88,1.09.87,3,1.47,1.68,3.43-1.52,2.31-2.84.49-4.09-.38C67.21,208.05,61,195.18,60.47,181.29Z"/><path class="cls-3" d="M195.49,207.84c0-7.4,4.11-12.15,8.94-16.4,4.29-3.76,8.63-7.41,9.65-13.48a2,2,0,0,1,2.48-1.85c2.06.31,1.51,1.87,1.25,3.11a22.24,22.24,0,0,1-7.68,12.51c-3.28,2.81-6.67,5.51-8.88,9.37-1.72,3-2.68,6.13-1.47,9.53.62,1.73,1,3.52-1.15,4-2.45.59-2.24-1.9-2.7-3.27A15.13,15.13,0,0,1,195.49,207.84Z"/><path class="cls-3" d="M147.18,10.6a25.29,25.29,0,0,1,14,4.65c.91.61,2.37,1.09,1.32,2.6-.75,1.06-1.6,2.08-3.23.93-7.35-5.17-15-5.73-23-1.44-1.42.77-2.52.7-3.3-.83-1-1.91.67-2.25,1.76-2.84A25,25,0,0,1,147.18,10.6Z"/><path class="cls-3" d="M142.17,20.44a31.64,31.64,0,0,1,17.22,6c1,.72,2.49,1.38,1.29,3.1s-2.27,1.13-3.69.11a26.38,26.38,0,0,0-20.75-4.7c-1.69.3-3.53.81-3.71-1.72-.16-2.3,1.94-1.9,3.23-2.13C137.87,20.71,140,20.64,142.17,20.44Z"/><path class="cls-3" d="M114,27.08a2,2,0,0,1-1.47,2.61A38.68,38.68,0,0,0,94.67,42.62c-1,1.24-1.83,1.72-3.27.61-1.72-1.33-.51-2.3.27-3.27A42.69,42.69,0,0,1,110.3,26.32C111.84,25.75,113.56,24.86,114,27.08Z"/><path class="cls-3" d="M110.65,16.61c1.21.61,3.63-1.21,3.79,1.61.14,2.48-1.8,2.09-3.5,2.14A18.7,18.7,0,0,0,98.33,25.6c-1.29,1.22-2.43,1.73-3.73.25s.21-2.34,1.1-3.18A21.51,21.51,0,0,1,110.65,16.61Z"/><path class="cls-4" d="M128.22,130c1.2,3.93,2.16,7.27,4.17,10.15.68,1,1.3,2.05,2.74,1a2,2,0,0,0,.68-3c-.52-.86-1.06-1.7-1.5-2.6-2.35-4.81-2.09-5.34,3.17-5.17a2.11,2.11,0,0,0,2.5-1.7c.54-1.73-.86-1.92-1.92-2.21s-2.3-.35-3.43-.63c-1.54-.39-4.58,1.8-4.24-1.88.23-2.41,0-5.84,4.15-5.81,1.66,0,3.32-.24,5-.28,4-.09,6.42,1,7.57,5.67,2.3,9.32,11,15.33,20.46,15.21a21,21,0,0,0,20.24-15.61c.83-3.14,2.07-4.43,5.24-4.61,4.48-.25,8.94-.89,13.41-1.39,1.64-.18,3-.16,2.83,2.15-1.53,17.56-1.78,35.44-9,51.9-10.78,24.65-42.76,40.07-70.1,34.45C104.67,200.32,86,181.49,81,155.8a150,150,0,0,1-2.51-35.27c.12-2.64.41-3.77,3.66-3.22,4.48.75,6.86,2.26,8.37,7.13,4.37,14.06,22.1,18.73,33.51,9.35C125.31,132.74,126.48,131.55,128.22,130Zm12.32,36.58a25.37,25.37,0,0,0,15.36-5.07c1-.71,2.55-1.33,1.15-3.06-1.12-1.39-2.2-1.07-3.44-.19-7.31,5.18-15,6.06-23,1.67-1.58-.87-2.54-.22-3.2,1.15-.77,1.6.61,2.06,1.58,2.55A25.36,25.36,0,0,0,140.54,166.53Z"/><path class="cls-4" d="M191.72,114.78c-2.27.69-3.12-.71-3.88-3.24-3-9.85-11-15.84-20.59-15.8s-17.2,5.78-20.33,15.48c-.81,2.51-1.76,3-4.46,3.09-6.68.18-11.14-.66-14.17-8.31-3.14-7.94-11.32-11-20-10-8.9,1-15.58,5.85-17.85,14.48-1.65,6.25-5.09,3.38-8.18,3-4.53-.54-2.6-3.86-2.19-6.14C82.4,94.16,88.77,83,97.12,72.78c9.08-11.06,18.21-22.09,27.25-33.18,1.17-1.44,1.9-2.68,3.73-.67,10.6,11.68,24.31,19,37.8,26.54,12.17,6.84,24.76,13,34.53,23.45a34.28,34.28,0,0,1,9.22,19.5c.4,3,0,4.64-3.52,4.82C201.49,113.48,196.87,114.21,191.72,114.78ZM109.33,74.9a17.85,17.85,0,0,0-7.1,1.84c-1,.56-2.36.9-1.53,2.5.57,1.08,1.32,2,2.76,1.25a12.79,12.79,0,0,1,12-.28c1.52.72,2.16-.24,2.74-1.27.91-1.63-.49-1.94-1.49-2.46A17.83,17.83,0,0,0,109.33,74.9Zm57.9,3.71a38.43,38.43,0,0,1,5.24,1.54c1.62.74,2.88.85,3.69-.89.9-1.92-.89-2.19-2-2.7a16.6,16.6,0,0,0-13.92-.21c-1.12.46-2.72.84-1.63,2.79.85,1.54,1.87,1.38,3.29.85A53.13,53.13,0,0,1,167.23,78.61Z"/><path class="cls-5" d="M128,117.06a17.5,17.5,0,0,1-17.2,17.63,17.46,17.46,0,1,1-.33-34.91A17.42,17.42,0,0,1,128,117.06Zm-13.44-5.43c-3.12.49-5.38,2-5.42,5.4,0,3.57,2.13,5.72,5.57,5.68s5.59-2.19,5.43-5.8C120,113.55,117.78,112,114.55,111.63Z"/><path class="cls-5" d="M167.61,134.7a17.46,17.46,0,1,1,17.29-17.76A17.78,17.78,0,0,1,167.61,134.7ZM173,116.92c-.65-3.23-2.46-5.38-6-5.16s-5.44,2.47-5.23,5.9a5.13,5.13,0,0,0,5.63,5C170.83,122.62,172.75,120.51,173,116.92Z"/><path class="cls-4" d="M231,133.64c-.06,5.52-.51,11-3.08,16-3.45,6.71-9.39,9.45-15.5,7.55-2.46-.76-3.42-1.7-2.87-4.6,1.94-10.11,2.69-20.39,3.48-30.65.19-2.5,0-5,3.06-6.14,3.32-1.17,6.42-1.48,9.35,1C230.73,121.3,231.08,127.38,231,133.64Z"/><path class="cls-4" d="M59.14,132.79c.2-4,.12-8.48,2.63-12.48,1.54-2.45,3.44-4.51,6.36-5.22,4.65-1.14,6.69.6,6.49,5.36a141.42,141.42,0,0,0,2.14,33.13c.79,4-1,4.79-4.24,4.18-5.8-1.1-9.12-5.11-11.19-10.27C59.52,143,59.36,138.11,59.14,132.79Z"/><path class="cls-4" d="M170.07,205.16c0,4.63,1.67,10.54-.45,12.63-2.33,2.31-8.12,1.2-12.42,1.43-11.79.62-23.58.34-35.37-.2-2.86-.13-4.12-.37-3.73-4,.84-7.88.51-7.91,8.16-6.28C141.24,211.91,146.47,211.51,170.07,205.16Z"/><path class="cls-3" d="M140.54,166.53A25.36,25.36,0,0,1,129,163.58c-1-.49-2.35-1-1.58-2.55.66-1.37,1.62-2,3.2-1.15,8,4.39,15.66,3.51,23-1.67,1.24-.88,2.32-1.2,3.44.19,1.4,1.73-.15,2.35-1.15,3.06A25.37,25.37,0,0,1,140.54,166.53Z"/><path class="cls-3" d="M109.33,74.9a17.83,17.83,0,0,1,7.37,1.58c1,.52,2.4.83,1.49,2.46-.58,1-1.22,2-2.74,1.27a12.79,12.79,0,0,0-12,.28c-1.44.76-2.19-.17-2.76-1.25-.83-1.6.55-1.94,1.53-2.5A17.85,17.85,0,0,1,109.33,74.9Z"/><path class="cls-3" d="M167.23,78.61A53.13,53.13,0,0,0,161.94,80c-1.42.53-2.44.69-3.29-.85-1.09-2,.51-2.33,1.63-2.79a16.6,16.6,0,0,1,13.92.21c1.07.51,2.86.78,2,2.7-.81,1.74-2.07,1.63-3.69.89A38.43,38.43,0,0,0,167.23,78.61Z"/><path class="cls-3" d="M114.55,111.63c3.23.37,5.43,1.92,5.58,5.28.16,3.61-2,5.76-5.43,5.8s-5.61-2.11-5.57-5.68C109.17,113.63,111.43,112.12,114.55,111.63Z"/><path class="cls-3" d="M173,116.92c-.28,3.59-2.2,5.7-5.61,5.79a5.13,5.13,0,0,1-5.63-5c-.21-3.43,1.71-5.68,5.23-5.9S172.38,113.69,173,116.92Z"/></g></g></svg>