<svg xmlns="http://www.w3.org/2000/svg" viewBox="0 0 267.72 340.22"><defs><style>.cls-1{fill:#fce5ad;}.cls-2{fill:#181513;}.cls-3{fill:#6e5043;}.cls-4{fill:#f5dcc3;}.cls-5{fill:#070606;}</style></defs><g id="Layer_2" data-name="Layer 2"><g id="Layer_1-2" data-name="Layer 1"><path class="cls-1" d="M263.45,339c-1.66.14-3.31.39-5,.39q-125.64,0-251.29,0c-.84,0-1.67-.05-2.5-.08,6.29-21.21,12.89-42.35,20.67-63,6.75-18,19.93-30.34,37.75-37.75,11.86-4.93,24.25-5.29,36.79-5.16,3.25,0,4.82.67,6,4.11,4.46,13.66,11.71,25.72,22.44,35.46,1.61,1.46,2.17,2.19.42,4.24-2.94,3.44-2.42,7.6.7,10.19s6.45,2.51,9.53-.08a6.86,6.86,0,0,0,.44-10.23c-2.11-2.17-1.27-3.09.25-4.72a131.22,131.22,0,0,0,18.8-25.75c2.41-4.28,2.4-10.81,6.72-12.7s9.84-.63,14.82-.4c28.43,1.33,50.1,14.12,61.67,40.25C250.93,294.72,256.78,317.07,263.45,339Z"/><path class="cls-2" d="M263.45,339c-6.67-22-12.52-44.31-21.8-65.26-11.57-26.13-33.24-38.92-61.67-40.25-5-.23-10.61-1.43-14.82.4s-4.31,8.42-6.72,12.7a131.22,131.22,0,0,1-18.8,25.75c-1.52,1.63-2.36,2.55-.25,4.72a6.86,6.86,0,0,1-.44,10.23c-3.08,2.59-6.37,2.69-9.53.08s-3.64-6.75-.7-10.19c1.75-2,1.19-2.78-.42-4.24-10.73-9.74-18-21.8-22.44-35.46-1.13-3.44-2.7-4.07-6-4.11-12.54-.13-24.93.23-36.79,5.16-17.82,7.41-31,19.77-37.75,37.75C17.59,297,11,318.14,4.7,339.35c-1.33.7-2.62,1.48-4,.12S.44,337.2.83,336c4-12.16,7.1-24.66,12-36.43C17.8,287.5,19,274,26.9,263.05c2.48-3.45,4.75-7.09,7.9-9.86,2.71-2.38,1.92-3.63-.17-5.7-11-10.88-17.17-23.8-15.84-39.59,1-11.64,3.87-22.94,11.38-32,3.65-4.39,1.25-7.89.61-11.29-2.88-15.41-3.22-30.89-3-46.47.3-17,6.42-31.72,16.4-45.12a6.15,6.15,0,0,1,1.7-1.81c9.53-5.31,9.74-14.6,11.25-23.92C58.9,36.7,65.5,28.06,73.42,21.1,95.18,1.94,120.35-4.42,148.58,3A49.33,49.33,0,0,1,171.14,16.3c4.08,4.13,8.88,7,13.77,10.07A85.17,85.17,0,0,1,206.73,46c13.65,17.3,18.46,37.57,19.85,59.05.51,7.76,4.49,14.73,6,22.27,2.71,13.4,4.51,26.73,2.6,40.63-1.51,11-3.79,21.52-8.1,31.65-1.34,3.16,1.9,4.3,2.86,6.29a55.29,55.29,0,0,1,5.89,20.54c.58,8.56-3.29,14.92-9.2,20.72,13.06,11.14,20.12,25.63,24.92,41.6s10.13,31.76,15.12,47.65c.27.87,2,1.95.31,2.93C265.9,340,264.52,340.5,263.45,339ZM158.33,61.42c1.54-1.37,3-.71,4.57.06a42.83,42.83,0,0,1,18.55,17.59c5.6,9.6,9.27,19.87,9.34,31.16,0,2.39.54,3,3.18,2.61a12.89,12.89,0,0,1,14.57,9.43c3.16,11,.15,21-6.46,30a9.77,9.77,0,0,1-7.73,4.09c-3.12,0-4,1.65-4.46,4.15-3.12,17.76-12.84,31.09-27.57,41-8.39,5.66-8.42,5.63-5.13,15.46.27.79.7,1.52.94,2.31,2.34,7.6,6.7,11.1,15.35,10.26,15.65-1.52,30.4,2.33,43.94,10.4,7.16,4.27,9.21,3.68,12.74-4.15a20.18,20.18,0,0,0,1.77-8.22c.07-8.17-3.17-15.22-7.27-22-1.55-2.55-2.31-4.78-1-7.89,10.32-25.08,11.05-50.58,3.11-76.46-1.6-5.23-4.56-10.19-4.65-15.7a110.36,110.36,0,0,0-2.28-20.78c-4.74-22.85-16.32-41.22-36.06-54-5.85-3.81-11.6-7.55-16.66-12.51C158.2,9.59,147,5.25,134.71,4.48,110.3,2.94,89.21,10.3,72.55,28.89c-7.86,8.78-12.26,18.94-12.68,30.67a9.91,9.91,0,0,1-3.46,7.75c-15,13.57-23,30.75-24.47,50.81-1.27,17.37,1.3,34.51,4.39,51.55.5,2.78.36,4.94-1.48,7.38A59,59,0,0,0,27.42,190c-8.7,21.06-5.25,38.84,10.59,54.36,1.88,1.84,3.23,2.78,5.83.71,13.79-11,29.69-15.83,47.27-15.67,16,.14,16,0,20.79-15.46.24-.8.53-1.58.73-2.39.53-2.18.17-3.62-2.35-4.56-20.8-7.77-33.46-22.82-38.6-44.22-.86-3.57-1.7-6-6-6.11-2.67-.09-5-1.76-6.84-3.78-6.84-7.36-8.45-16.33-8.07-25.93.36-9.26,7-15,16.14-13.8,2.29.31,2.89-.29,3.1-2.45a125.07,125.07,0,0,1,1.89-13.8A58.49,58.49,0,0,1,92.72,62.66c1.43-1.16,3.17-3.63,5.44-.86-.29,2.55-2.4,3.7-4.06,5.16-13.29,11.75-19.36,26.7-19.5,44.22-.09,12.16,0,24.32,0,36.48.07,27.6,14,47.4,39.93,56.41,3.06,1.07,3.28,2.39,2.8,5a76.08,76.08,0,0,1-7.07,20h48a71,71,0,0,1-7.57-21.57c-.7-3.48.33-4.82,3.4-6.37,21.29-10.7,32.2-28.15,32.63-52,.22-12.66.5-25.34-.07-38-.89-19.48-7.86-35.93-25.73-46.08C159.38,64.28,158.07,63.44,158.33,61.42Zm1.1,172.07c-16.22,0-32.15,0-48.08,0-1.86,0-2.79.22-2,2.49,4.68,13.4,11.71,25.24,22.34,34.85,2.22,2,3.31.89,4.77-.7A125.13,125.13,0,0,0,153.67,247C156,242.82,158.42,238.64,159.43,233.49ZM70.61,136.16c0-4.16,0-8.32,0-12.48-.08-5.23-4.19-8.06-9.13-6.25a9.35,9.35,0,0,0-6.36,7.68,32.13,32.13,0,0,0,5,22.86A10.75,10.75,0,0,0,66,152.39c2.83.9,4.89.61,4.72-3.26C70.48,144.81,70.62,140.48,70.61,136.16Zm120.14-.48c0,4.65.25,9.31-.08,13.94-.25,3.57,1.47,3.62,3.83,2.7a13.55,13.55,0,0,0,4.16-2.64c5.52-5.13,8.72-19.54,5.93-26.57-1.47-3.72-4.28-6-8.31-6.11-3.4-.13-5.74,1.15-5.57,5.23C190.89,126.71,190.75,131.19,190.75,135.68Z"/><path class="cls-3" d="M98.16,61.8c-2.27-2.77-4-.3-5.44.86A58.49,58.49,0,0,0,71.94,96.89a125.07,125.07,0,0,0-1.89,13.8c-.21,2.16-.81,2.76-3.1,2.45-9.15-1.23-15.78,4.54-16.14,13.8-.38,9.6,1.23,18.57,8.07,25.93,1.88,2,4.17,3.69,6.84,3.78,4.26.14,5.1,2.54,6,6.11,5.14,21.4,17.8,36.45,38.6,44.22,2.52.94,2.88,2.38,2.35,4.56-.2.81-.49,1.59-.73,2.39-4.79,15.49-4.79,15.6-20.79,15.46-17.58-.16-33.48,4.66-47.27,15.67-2.6,2.07-4,1.13-5.83-.71C22.17,228.83,18.72,211.05,27.42,190a59,59,0,0,1,7.43-12.94c1.84-2.44,2-4.6,1.48-7.38-3.09-17-5.66-34.18-4.39-51.55,1.46-20.06,9.42-37.24,24.47-50.81a9.91,9.91,0,0,0,3.46-7.75c.42-11.73,4.82-21.89,12.68-30.67C89.21,10.3,110.3,2.94,134.71,4.48,147,5.25,158.2,9.59,167.09,18.3c5.06,5,10.81,8.7,16.66,12.51,19.74,12.82,31.32,31.19,36.06,54a110.36,110.36,0,0,1,2.28,20.78c.09,5.51,3,10.47,4.65,15.7,7.94,25.88,7.21,51.38-3.11,76.46-1.28,3.11-.52,5.34,1,7.89,4.1,6.74,7.34,13.79,7.27,22a20.18,20.18,0,0,1-1.77,8.22c-3.53,7.83-5.58,8.42-12.74,4.15-13.54-8.07-28.29-11.92-43.94-10.4-8.65.84-13-2.66-15.35-10.26-.24-.79-.67-1.52-.94-2.31-3.29-9.83-3.26-9.8,5.13-15.46,14.73-9.94,24.45-23.27,27.57-41,.43-2.5,1.34-4.13,4.46-4.15a9.77,9.77,0,0,0,7.73-4.09c6.61-9,9.62-19,6.46-30A12.89,12.89,0,0,0,194,112.84c-2.64.37-3.16-.22-3.18-2.61-.07-11.29-3.74-21.56-9.34-31.16A42.83,42.83,0,0,0,162.9,61.48c-1.58-.77-3-1.43-4.57-.06l-4.3.23c-.46-1.06-1-2.11-1.37-3.18-5.15-13.41-14.92-21.57-28.71-25-2.24-.56-5.91-2.87-6.62.9-.62,3.31,3.5,2.56,5.67,3,13.39,2.48,25.11,15.83,25.85,24.06a76,76,0,0,1-15.67,0c-1.38-2-2.68-4.14-4.14-6.12-6.89-9.28-16-14.71-27.59-15.76-1.39-.13-3.29-.61-3.53,1.61s1.55,2.14,3.06,2.25a31,31,0,0,1,14.46,4.94c5,3.2,10,6.54,11.54,12.9-5.37,1.61-11.06-.73-16.38,1.35-7.17-9.1-19.42-13.21-29.67-10-1.42.45-3.15.56-2.43,2.81C79,57,80.14,57,81.64,56.64A18.82,18.82,0,0,1,87,55.8c5.52.18,11.28,0,14.93,5.41ZM58.06,177.11a31.2,31.2,0,0,0-.9-4.85c-.47-1.39-.49-3.91-2.86-3.16-2,.64-1.49,2.53-.93,4.26,1.58,4.86-.21,9.16-2.62,13.25-2,3.43-4.32,6.71-6.32,10.15-3.57,6.14-2.52,20,1.76,25.26.77.94,1.53,1.89,2.89,1.2,1.19-.6,1.7-1.53.9-2.84-6.85-11.19-3.69-21.14,3.58-30.75A20.54,20.54,0,0,0,58.06,177.11Zm1.72,30.11c.18,3.76.95,7.1,3.24,9.94.75.94,1.66,1.8,2.94,1a1.75,1.75,0,0,0,.4-2.63C61.21,208.14,64.78,202,69,196a23.53,23.53,0,0,0,4.48-11.42c.13-1.34-.11-2.79-1.93-2.89-1.56-.09-1.87,1.06-1.93,2.31-.17,4.19-2.5,7.43-4.62,10.81C62.59,198.67,59.84,202.49,59.78,207.22Zm146.83,9.12a45.09,45.09,0,0,1,3.42-34.4c.75-1.46,1.29-2.91-.58-3.8s-2.24.8-2.87,1.91c-5.48,9.65-6.59,20.1-5.5,30.91C201.35,213.7,203.05,215.4,206.61,216.34ZM186,202.18c.12.69.41,2.32.68,4,.22,1.41-.12,3.34,2.13,3.2,2.63-.18,1.93-2.36,1.75-3.83-1.16-9.37,1.05-17.72,7.22-24.94,1.09-1.28,1.57-2.67.19-4-1.78-1.67-2.68.14-3.53,1.2C188.94,184.63,186.45,192.58,186,202.18Z"/><path class="cls-4" d="M154,61.65l4.3-.23c-.26,2,1,2.86,2.58,3.74,17.87,10.15,24.84,26.6,25.73,46.08.57,12.64.29,25.32.07,38-.43,23.81-11.34,41.26-32.63,52-3.07,1.55-4.1,2.89-3.4,6.37a71,71,0,0,0,7.57,21.57h-48a76.08,76.08,0,0,0,7.07-20c.48-2.65.26-4-2.8-5-25.95-9-39.86-28.81-39.93-56.41,0-12.16-.09-24.32,0-36.48C74.74,93.66,80.81,78.71,94.1,67c1.66-1.46,3.77-2.61,4.06-5.16l3.8-.59a10.14,10.14,0,0,1,5.5,3.75c.77,1.09,1.55,2.21,3.17,1.22,2.07-1.26.62-2.45,0-3.66,5.32-2.08,11,.26,16.38-1.35a11.87,11.87,0,0,1,1.78,1.6c.8,1.07.76,2.95,3.05,2.22s1-2.4,1.37-3.64a76,76,0,0,0,15.67,0C150.45,64.14,152.17,64.21,154,61.65ZM114,141a7.69,7.69,0,0,0,1.56,4.77c1,1.31,1.81,4,3.87,3,2.77-1.37.72-3.18-.37-4.8-1.45-2.18-2-5.09,1-5.7,6.73-1.39,4.18-5.73,3.57-9.45-.17-1-.18-3-2.26-2.52s-2.22,1.8-1.47,3.43c1.28,2.78.09,4.13-2.48,5.27S114,138.46,114,141Zm10.63,30.42c5.88,0,10.47-2.65,14.15-7.06.7-.84,1.73-1.78.3-2.92-1.2-1-2.13-1.09-3.3.29-5.18,6.12-11.4,7.57-18.6,3.73-1.41-.76-2.48-.8-3.29.71-1,1.82.6,2.33,1.68,2.94A18.21,18.21,0,0,0,124.58,171.4ZM97.77,93.31c-6-.22-9.75,3.19-13.18,7.13-.78.9-2.3,1.73-.74,3.25s2.54.83,3.65-.53c4.11-5,8.85-8,15.44-4.35,1.4.78,2.22-.26,2.79-1.24.65-1.16-.34-1.8-1.17-2.32A11.21,11.21,0,0,0,97.77,93.31Zm54.75-1.83c-1.49.45-4.17-1-4.35,1.77-.22,3.23,2.65,2.17,4.42,2.24a24.53,24.53,0,0,1,13.58,4.25c1.21.85,2.45,2,3.81.23,1.5-2-.39-2.62-1.48-3.41C163.77,93.15,158.36,91.78,152.52,91.48Zm.9,29.06c-3.28.57-5.41,2.42-5.26,5.66a5,5,0,0,0,5.56,5.12c3.14-.18,5.3-2.17,5.16-5.54S156.49,120.91,153.42,120.54Zm-48.85,10.91c3.1-.48,5.28-2.1,5.31-5.43s-2.11-5.3-5.29-5.35A5.07,5.07,0,0,0,99.17,126C99.11,129.23,101.41,130.9,104.57,131.45Z"/><path class="cls-1" d="M159.43,233.49c-1,5.15-3.42,9.33-5.76,13.47a125.13,125.13,0,0,1-17.21,23.15c-1.46,1.59-2.55,2.7-4.77.7C121.06,261.2,114,249.36,109.35,236c-.79-2.27.14-2.5,2-2.49C127.28,233.5,143.21,233.49,159.43,233.49Z"/><path class="cls-4" d="M70.62,136.16c0,4.32-.14,8.65,0,13,.17,3.87-1.89,4.16-4.72,3.26A10.75,10.75,0,0,1,60.06,148a32.13,32.13,0,0,1-5-22.86,9.35,9.35,0,0,1,6.36-7.68c4.94-1.81,9,1,9.13,6.25C70.66,127.84,70.61,132,70.62,136.16Z"/><path class="cls-4" d="M190.75,135.68c0-4.49.14-9,0-13.45-.17-4.08,2.17-5.36,5.57-5.23,4,.15,6.84,2.39,8.31,6.11,2.79,7-.41,21.44-5.93,26.57a13.55,13.55,0,0,1-4.16,2.64c-2.36.92-4.08.87-3.83-2.7C191,145,190.75,140.33,190.75,135.68Z"/><path class="cls-5" d="M58.06,177.11a20.54,20.54,0,0,1-4.5,12.52c-7.27,9.61-10.43,19.56-3.58,30.75.8,1.31.29,2.24-.9,2.84-1.36.69-2.12-.26-2.89-1.2-4.28-5.22-5.33-19.12-1.76-25.26,2-3.44,4.29-6.72,6.32-10.15,2.41-4.09,4.2-8.39,2.62-13.25-.56-1.73-1-3.62.93-4.26,2.37-.75,2.39,1.77,2.86,3.16A31.2,31.2,0,0,1,58.06,177.11Z"/><path class="cls-5" d="M154,61.65c-1.86,2.56-3.58,2.49-5.18-.25-.74-8.23-12.46-21.58-25.85-24.06-2.17-.4-6.29.35-5.67-3,.71-3.77,4.38-1.46,6.62-.9,13.79,3.42,23.56,11.58,28.71,25C153.07,59.54,153.57,60.59,154,61.65Z"/><path class="cls-5" d="M133.18,61.35c-.35,1.24.85,2.93-1.37,3.64s-2.25-1.15-3.05-2.22a11.87,11.87,0,0,0-1.78-1.6c-1.54-6.36-6.55-9.7-11.54-12.9A31,31,0,0,0,101,43.33c-1.51-.11-3.3,0-3.06-2.25s2.14-1.74,3.53-1.61C113,40.52,122.15,46,129,55.23,130.5,57.21,131.8,59.31,133.18,61.35Z"/><path class="cls-5" d="M110.6,62.52c.65,1.21,2.1,2.4,0,3.66-1.62,1-2.4-.13-3.17-1.22a10.14,10.14,0,0,0-5.5-3.75C98.31,55.76,92.55,56,87,55.8a18.82,18.82,0,0,0-5.39.84c-1.5.4-2.61.39-3.14-1.28-.72-2.25,1-2.36,2.43-2.81C91.18,49.31,103.43,53.42,110.6,62.52Z"/><path class="cls-5" d="M59.78,207.22c.06-4.73,2.81-8.55,5.26-12.46,2.12-3.38,4.45-6.62,4.62-10.81.06-1.25.37-2.4,1.93-2.31,1.82.1,2.06,1.55,1.93,2.89A23.53,23.53,0,0,1,69,196c-4.26,6-7.83,12.19-2.68,19.54a1.75,1.75,0,0,1-.4,2.63c-1.28.84-2.19,0-2.94-1C60.73,214.32,60,211,59.78,207.22Z"/><path class="cls-5" d="M206.61,216.34c-3.56-.94-5.26-2.64-5.53-5.38-1.09-10.81,0-21.26,5.5-30.91.63-1.11,1.07-2.77,2.87-1.91s1.33,2.34.58,3.8A45.09,45.09,0,0,0,206.61,216.34Z"/><path class="cls-5" d="M186,202.18c.45-9.6,2.94-17.55,8.44-24.38.85-1.06,1.75-2.87,3.53-1.2,1.38,1.3.9,2.69-.19,4-6.17,7.22-8.38,15.57-7.22,24.94.18,1.47.88,3.65-1.75,3.83-2.25.14-1.91-1.79-2.13-3.2C186.41,204.5,186.12,202.87,186,202.18Z"/><path class="cls-2" d="M114,141c.09-2.52,1-4.93,3.44-6s3.76-2.49,2.48-5.27c-.75-1.63-.48-3,1.47-3.43s2.09,1.47,2.26,2.52c.61,3.72,3.16,8.06-3.57,9.45-3,.61-2.47,3.52-1,5.7,1.09,1.62,3.14,3.43.37,4.8-2.06,1-2.85-1.65-3.87-3A7.69,7.69,0,0,1,114,141Z"/><path class="cls-2" d="M124.58,171.4a18.21,18.21,0,0,1-9.06-2.31c-1.08-.61-2.65-1.12-1.68-2.94.81-1.51,1.88-1.47,3.29-.71,7.2,3.84,13.42,2.39,18.6-3.73,1.17-1.38,2.1-1.26,3.3-.29,1.43,1.14.4,2.08-.3,2.92C135.05,168.75,130.46,171.38,124.58,171.4Z"/><path class="cls-2" d="M97.77,93.31a11.21,11.21,0,0,1,6.79,1.94c.83.52,1.82,1.16,1.17,2.32-.57,1-1.39,2-2.79,1.24-6.59-3.65-11.33-.7-15.44,4.35-1.11,1.36-2.16,2-3.65.53s0-2.35.74-3.25C88,96.5,91.77,93.09,97.77,93.31Z"/><path class="cls-2" d="M152.52,91.48c5.84.3,11.25,1.67,16,5.08,1.09.79,3,1.44,1.48,3.41-1.36,1.8-2.6.62-3.81-.23a24.53,24.53,0,0,0-13.58-4.25c-1.77-.07-4.64,1-4.42-2.24C148.35,90.51,151,91.93,152.52,91.48Z"/><path class="cls-2" d="M153.42,120.54c3.07.37,5.32,1.91,5.46,5.24s-2,5.36-5.16,5.54a5,5,0,0,1-5.56-5.12C148,123,150.14,121.11,153.42,120.54Z"/><path class="cls-2" d="M104.57,131.45c-3.16-.55-5.46-2.22-5.4-5.49a5.07,5.07,0,0,1,5.42-5.29c3.18,0,5.32,2,5.29,5.35S107.67,131,104.57,131.45Z"/></g></g></svg>