<svg xmlns="http://www.w3.org/2000/svg" viewBox="0 0 251.62 332.02"><defs><style>.cls-1{fill:#070606;}.cls-2{fill:#fda29d;}.cls-3{fill:#f5dcc3;}.cls-4{fill:#181513;}</style></defs><g id="Layer_2" data-name="Layer 2"><g id="Layer_1-2" data-name="Layer 1"><path class="cls-1" d="M27.12,246c-.09-8.56,3.48-16.34,5.32-24.49,2-8.8,5.22-17.33,5.55-26.48.33-.77,1.88-.81,1.29-2.14.84-1.18.72-2.54.76-3.87a1.82,1.82,0,0,0,.49-2.08c.14-1,.27-2,.41-2.94a3.86,3.86,0,0,0,.67-3.05l.33-2.95a1.85,1.85,0,0,0,.3-2.09c.24-1.64.48-3.27.71-4.91a4,4,0,0,0,.59-3.06c.13-1.31.25-2.63.38-3.94a3.65,3.65,0,0,0,.34-3.09,15,15,0,0,0,.66-5.91,8.9,8.9,0,0,0,.57-5.07c.85-5.67.89-11.3-1-16.81a2,2,0,0,0-.52-2.08l0-11c.22-.68.45-1.36.68-2a6.78,6.78,0,0,0,1-5.84L44.91,106q0-8,0-16a13.81,13.81,0,0,0,.67-6c.1-1.32.21-2.64.31-4a1.86,1.86,0,0,0,.36-2.09A96.71,96.71,0,0,1,56.92,42.55c3.23-6.06,7.76-10.81,12.28-15.78,6.92-7.62,14.59-14,24-18.39A94.27,94.27,0,0,1,119.87.56,3.88,3.88,0,0,0,122.94,0h18a6.36,6.36,0,0,0,4.07.54L149,1a1.84,1.84,0,0,0,2.08.49c10.79,2.82,21.13,6.45,30,13.7,10.1,8.27,16.75,18.85,21.89,30.59.47,1.06.89,2.14,1.33,3.21a11.37,11.37,0,0,0,1.79,5c7.26,24.67,7.18,50.12,7.93,75.48.65,21.95,1,43.92,2,65.86.64,13.79,2.65,27.46,7.22,40.61l.9,2q1.23,5.46,2.45,10.93A1.85,1.85,0,0,0,227,251c.05,3.63.29,7.27.1,10.89-.11,2.14,1,3.33,2.22,4.68,8.86,9.49,14.15,20.81,17,33.38.28.67.57,1.34.86,2,.12.64.23,1.29.35,1.93a1.9,1.9,0,0,0,.59,2.08l.33,1.94A1.83,1.83,0,0,0,249,310c.17,1.3.35,2.61.52,3.91A1.92,1.92,0,0,0,250,316c.12,1.31.25,2.62.37,3.94A3.68,3.68,0,0,0,251,323l.66,4.9-.75,4.05-2.81-.13a259.57,259.57,0,0,0-6-33.89c-2.75-10.88-8.16-20.23-15.52-28.65-9.82-11.24-23.08-17.19-35.79-24.07-2.93-1.59-4.68-1.47-7.19,1.13C154,277,101,284.27,68.66,245.07c-1.7-2.06-3.12-1.85-5.08-.78-7,3.82-14.17,7.38-21,11.42A67.13,67.13,0,0,0,14.3,287.08c-6.24,14.17-8,29.44-9.76,44.65-3.87,1-4.94-.58-4.41-4.33a231.07,231.07,0,0,1,10.43-44.69c1.69-4.8,5.84-9,9.66-12.7,4.2-4,6.2-8.37,5.6-14a5.42,5.42,0,0,0,.5-4.08c.16-1.31.32-2.61.49-3.92A1.47,1.47,0,0,0,27.12,246ZM160.19,48.18c-1.88,2.06-3.07,3.4-4.3,4.71a170.38,170.38,0,0,1-24.17,21.6C111.94,88.71,90.13,98.9,67.26,106.94c-2.89,1-3.79,2.39-3.76,5.36.2,15.74,1.79,31.23,7.69,46,6.36,15.95,16.61,28.17,32.77,35.12,28.53,12.27,63.18-.52,76.42-28.54,7.23-15.3,8.19-31.75,8.62-48.29.05-2-1.12-3-2.22-4.22a99.48,99.48,0,0,1-20.43-36.24A185.75,185.75,0,0,1,160.19,48.18Zm-12,163.4c0-4.29-.11-7.13,0-10,.13-2.54-.71-3.18-3.19-2.52-12.49,3.3-25,3.56-37.41-.33-2.7-.84-3.54-.33-3.43,2.53.17,4.82-.28,9.68.15,14.47.4,4.51-1.5,6.91-5.21,9.09-8.32,4.88-16.47,10-25.19,14.19-3.19,1.51-3.35,2.59-1,5.22,31.93,36,80.64,27.47,108-.55,1.9-1.94,1.49-2.71-.71-3.83-7.56-3.85-14.79-8.33-22.28-12.26S145.71,219.14,148.15,211.58Zm58.35-86.45a42,42,0,0,0-1.13-5.83c-1-3.14-3.4-5.14-6.71-5-3,.17-4.55,2.58-5.08,5.4-2,10.78-1.87,21.87-4.65,32.56-.48,1.85.53,2.25,2.22,2.14,5.53-.36,9-3.52,10.72-8.4A93.36,93.36,0,0,0,206.5,125.13ZM62.34,154.4c2.12.24,3.3-.05,2.6-2.35a129.13,129.13,0,0,1-5-31.85c-.13-2.86-1.43-5.33-4.49-5.83s-5,1.21-6.49,3.68a11.63,11.63,0,0,0-1.46,6.23,67.25,67.25,0,0,0,4.85,22.77A10.86,10.86,0,0,0,62.34,154.4Z"/><path class="cls-2" d="M4.54,331.73c1.77-15.21,3.52-30.48,9.76-44.65a67.13,67.13,0,0,1,28.23-31.37c6.88-4,14-7.6,21-11.42,2-1.07,3.38-1.28,5.08.78C101,284.27,154,277,183.59,246.32c2.51-2.6,4.26-2.72,7.19-1.13,12.71,6.88,26,12.83,35.79,24.07,7.36,8.42,12.77,17.77,15.52,28.65a259.57,259.57,0,0,1,6,33.89c-1.66.05-3.32.16-5,.16Q126.54,332,10,332C8.19,332,6.37,331.81,4.54,331.73Z"/><path class="cls-3" d="M160.19,48.18a185.75,185.75,0,0,0,6.16,27.95,99.48,99.48,0,0,0,20.43,36.24c1.1,1.25,2.27,2.27,2.22,4.22-.43,16.54-1.39,33-8.62,48.29-13.24,28-47.89,40.81-76.42,28.54-16.16-6.95-26.41-19.17-32.77-35.12-5.9-14.77-7.49-30.26-7.69-46,0-3,.87-4.34,3.76-5.36,22.87-8,44.68-18.23,64.46-32.45a170.38,170.38,0,0,0,24.17-21.6C157.12,51.58,158.31,50.24,160.19,48.18ZM124,159a35.57,35.57,0,0,0,13.31-2.74c1.09-.48,2.3-.91,1.62-2.46-.6-1.38-1.47-1.91-3.14-1.21a27.87,27.87,0,0,1-20.85.85c-1.54-.56-2.59-.38-3.31,1-1,2,.88,2.16,1.92,2.6A28.34,28.34,0,0,0,124,159Zm26.76-77.76c-1.44.34-3.55.75-5.59,1.37-1,.31-2.45.68-1.73,2.34.48,1.08,1.19,2.14,2.64,1.48,5.64-2.57,10.27-.93,14.26,3.36,1,1.1,2,.84,3,0,1.28-1,.64-1.93-.2-2.88C160,83.41,156.09,81.58,150.73,81.25Zm-50.1,27.07c-2.9.44-5,1.86-5.16,5-.13,3.32,1.84,5.48,5,5.53s5.26-2.17,5.22-5.39C105.67,110.42,103.61,108.78,100.63,108.32Zm57.44,5.4c-.21-3.16-1.92-5.13-4.9-5.27-3.24-.14-5.33,1.76-5.38,5.13a4.78,4.78,0,0,0,4.82,5.23C155.84,118.94,157.73,117,158.07,113.72Zm-37.13-4a15,15,0,0,0-5.72-11.75c-1-.79-1.94-2.15-3.22-.39-.94,1.3-.74,2.35.56,3.36a10.9,10.9,0,0,1,4.32,10.43c-.16,1.46.05,2.71,1.84,2.84,2,.14,1.87-1.44,2.08-2.7C120.9,110.83,120.91,110.16,120.94,109.68Zm3.56,29a21.13,21.13,0,0,0,3.08-.67c1.51-.56,3.62-1.26,3-3.21-.49-1.4-2.49-1.15-4-.64a6.79,6.79,0,0,1-6.55-1c-1.44-1.06-2.47-.48-3.38.63-1.24,1.5.36,2,1.13,2.63C119.62,137.86,121.89,138.33,124.5,138.65Z"/><path class="cls-3" d="M148.15,211.58c-2.44,7.56,2.24,12.13,9.73,16.06s14.72,8.41,22.28,12.26c2.2,1.12,2.61,1.89.71,3.83-27.35,28-76.06,36.59-108,.55-2.32-2.63-2.16-3.71,1-5.22,8.72-4.14,16.87-9.31,25.19-14.19,3.71-2.18,5.61-4.58,5.21-9.09-.43-4.79,0-9.65-.15-14.47-.11-2.86.73-3.37,3.43-2.53,12.41,3.89,24.92,3.63,37.41.33,2.48-.66,3.32,0,3.19,2.52C148,204.45,148.15,207.29,148.15,211.58Z"/><path class="cls-3" d="M206.5,125.13a93.36,93.36,0,0,1-4.63,20.92c-1.74,4.88-5.19,8-10.72,8.4-1.69.11-2.7-.29-2.22-2.14,2.78-10.69,2.65-21.78,4.65-32.56.53-2.82,2-5.23,5.08-5.4,3.31-.19,5.68,1.81,6.71,5A42,42,0,0,1,206.5,125.13Z"/><path class="cls-3" d="M62.34,154.4a10.86,10.86,0,0,1-10-7.35,67.25,67.25,0,0,1-4.85-22.77,11.63,11.63,0,0,1,1.46-6.23c1.47-2.47,3.58-4.15,6.49-3.68s4.36,3,4.49,5.83a129.13,129.13,0,0,0,5,31.85C65.64,154.35,64.46,154.64,62.34,154.4Z"/><path class="cls-4" d="M124,159a28.34,28.34,0,0,1-10.45-1.92c-1-.44-3-.56-1.92-2.6.72-1.42,1.77-1.6,3.31-1a27.87,27.87,0,0,0,20.85-.85c1.67-.7,2.54-.17,3.14,1.21.68,1.55-.53,2-1.62,2.46A35.57,35.57,0,0,1,124,159Z"/><path class="cls-4" d="M150.73,81.25c5.36.33,9.28,2.16,12.4,5.7.84,1,1.48,1.83.2,2.88-1,.81-2,1.07-3,0-4-4.29-8.62-5.93-14.26-3.36-1.45.66-2.16-.4-2.64-1.48-.72-1.66.71-2,1.73-2.34C147.18,82,149.29,81.59,150.73,81.25Z"/><path class="cls-4" d="M100.63,108.32c3,.46,5,2.1,5.08,5.13,0,3.22-2,5.45-5.22,5.39s-5.15-2.21-5-5.53C95.6,110.18,97.73,108.76,100.63,108.32Z"/><path class="cls-4" d="M158.07,113.72c-.34,3.26-2.23,5.22-5.46,5.09a4.78,4.78,0,0,1-4.82-5.23c.05-3.37,2.14-5.27,5.38-5.13C156.15,108.59,157.86,110.56,158.07,113.72Z"/><path class="cls-4" d="M120.94,109.68c0,.48,0,1.15-.14,1.79-.21,1.26-.1,2.84-2.08,2.7-1.79-.13-2-1.38-1.84-2.84a10.9,10.9,0,0,0-4.32-10.43c-1.3-1-1.5-2.06-.56-3.36,1.28-1.76,2.26-.4,3.22.39A15,15,0,0,1,120.94,109.68Z"/><path class="cls-4" d="M124.5,138.65c-2.61-.32-4.88-.79-6.74-2.26-.77-.61-2.37-1.13-1.13-2.63.91-1.11,1.94-1.69,3.38-.63a6.79,6.79,0,0,0,6.55,1c1.48-.51,3.48-.76,4,.64.67,1.95-1.44,2.65-3,3.21A21.13,21.13,0,0,1,124.5,138.65Z"/></g></g></svg>