<svg xmlns="http://www.w3.org/2000/svg" viewBox="0 0 310.47 343.45"><defs><style>.cls-1{fill:#df4137;}.cls-2{fill:#070606;}.cls-3{fill:#c0d8c8;}.cls-4{fill:#f3c9b2;}.cls-5{fill:#f5dcc3;}.cls-6{fill:#181513;}.cls-7{fill:#fefefe;}</style></defs><g id="Layer_2" data-name="Layer 2"><g id="Layer_1-2" data-name="Layer 1"><path class="cls-1" d="M306.66,342.85c-1.82.07-3.64.22-5.47.22q-68.62,0-137.25,0c-2.16,0-4.32-.11-6.48-.17V212.38c2.07-.44,2.61.81,3.45,1.5a99.05,99.05,0,0,0,22.5,13.78c3.25,1.45,5.15,1.08,6.15-2.81,2-7.89,4.57-15.65,6.66-23.53.75-2.84,1.91-3.41,4.53-2.31,4.14,1.75,8.41,3.18,12.57,4.89,21.15,8.71,41,19.54,55.72,37.58C293,270.92,303,305.77,306.66,342.85Z"/><path class="cls-1" d="M152.38,343.18l-145.86,0a2,2,0,0,0-2.11.24l-.22-.28.21-.27a211.82,211.82,0,0,1,17.07-67.4C28,260.77,36,247.11,47.45,235.6c17.73-17.82,39.84-28,62.88-36.63,3.09-1.15,4.07-.12,4.81,2.68,1.92,7.23,4,14.42,6.11,21.61,1.77,6.18,2,6.23,7.75,3.76,8.87-3.8,16.66-9.3,24.58-15.83V342.84l.1.32-.27.18Z"/><path class="cls-2" d="M153.58,342.84V211.19c-7.92,6.53-15.71,12-24.58,15.83-5.76,2.47-6,2.42-7.75-3.76-2.07-7.19-4.19-14.38-6.11-21.61-.74-2.8-1.72-3.83-4.81-2.68-23,8.66-45.15,18.81-62.88,36.63C36,247.11,28,260.77,21.47,275.49A211.82,211.82,0,0,0,4.4,342.89c-4,.84-4.72-.21-4.29-4.64C1.5,323.87,5.2,310,8.78,296.15c2.47-9.58,7.29-18.38,11.22-27.47C26,254.83,34.62,243,44.8,232a94.77,94.77,0,0,1,22.09-17.86c8.22-4.69,16.77-9.63,26-12.58,1.54-.49,3-1.25,4.5-1.88a1.76,1.76,0,0,0,1.91-.76L112.45,194c1.19.16,2.54,0,2.54-1.34,0-1-1.22-1.73-2.4-1.91-6.3-4.72-12.42-9.6-15.93-16.93a4.15,4.15,0,0,0-2.11-3c-3.88-7.22-7.76-14.49-8.85-22.74-.33-2.48-1.39-3.14-3.45-3.1-8.3.14-13.23-4-15.16-11.92a13,13,0,0,0-.6-6.06l-.33-7a15.33,15.33,0,0,0-.67-7c0-2,0-4,0-6a1.94,1.94,0,0,0,.55-2.07l1.6-3.64c.18-.44.37-.87.56-1.31a10.91,10.91,0,0,1,7.32-4.37c3.79-.49,5.36-3.08,5-6.53-.73-7.92.29-15.77,1.11-23.55,1.1-10.54,3-21.17,9-30.28,2.82-4.33,6.95-7.8,10.47-11.67C114.59,8.76,132.52,3.7,151.34.6l2.17-.07,1.8-.13a10.46,10.46,0,0,0,5.12-.3c5-.42,10,.6,15,1a1.85,1.85,0,0,0,2.08.46c19.24,3.25,34.13,13.38,45.49,29,4.71,6.45,7.29,13.94,9.68,21.48a2,2,0,0,0,.63,2.06c1.64,12.78,3.09,25.57,3,38.48,0,1-.47,2.23,1.32,2.67,10.24,2.57,12.77,9.91,11.79,19.38-.15,1.48-.05,3-.07,4.47-.94,1.27-.74,2.67-.46,4.08-.19,3.28-.38,6.55-.58,9.83-.21.37-.42.74-.64,1.11-3.23,8.68-9.72,11.78-19.28,9.21-2.25.06-1.19,1.79-1.44,2.86-3.84,17.39-12,32.1-26.58,42.84-1.31,1-2.84,2.76-2.81,4.14,0,1.66,2.46,1.65,4,2.21,20,7.34,39.41,15.77,56,29.52a120,120,0,0,1,28.33,34.32,195.41,195.41,0,0,1,16.83,40.93l.44,1.17a288.91,288.91,0,0,1,7.19,38.38c.4,3.38-.42,4.51-3.72,3.24C303,305.77,293,270.92,269,241.48c-14.68-18-34.57-28.87-55.72-37.58-4.16-1.71-8.43-3.14-12.57-4.89-2.62-1.1-3.78-.53-4.53,2.31-2.09,7.88-4.62,15.64-6.66,23.53-1,3.89-2.9,4.26-6.15,2.81a99.05,99.05,0,0,1-22.5-13.78c-.84-.69-1.38-1.94-3.45-1.5V342.91l0,.26-1.08.28Zm91.74-223.47h.06c.17-3.66.63-7.33.44-11A10.41,10.41,0,0,0,236,98.87c-6.3-.19-4.69,4.81-5.27,8.12-.83,4.78-1.69,9.51-4.37,13.66-1.63,2.52-3.86,4.29-7.08,3.55s-3.81-3.55-3.83-6.26c0-6.15.13-12.31.33-18.46.06-1.84.34-3.73-.43-5.42-6.2-13.54-7.19-27.92-6.89-42.49a5.37,5.37,0,0,0-2.35-5,86.21,86.21,0,0,0-36.87-15.65c-21.57-3.61-42.42-.08-63.07,5.87a9.88,9.88,0,0,0-4.21,2.56C92.3,48.75,84.63,59.14,85.32,73.6a49.14,49.14,0,0,1-.39,5c-1.53,26.25-.67,52.32,7.54,77.56,5.44,16.73,16.09,29.28,32.1,37,15.14,7.32,31.09,6.51,47,4.13,17.58-2.63,30.88-12.26,41.15-26.57,6.3-8.78,9.27-18.71,11.14-29.11.62-3.48,1.36-5.09,5.36-2.73,7,4.08,14.35,0,15.29-8C245,127,245.06,123.19,245.32,119.37Zm-52.14,78.84c-.39-3.8-3.25-2.59-5.56-1.62A72.8,72.8,0,0,1,161,202.31c-1.2,0-2.87-.61-3.37,1.22-.39,1.46.56,2.52,1.54,3.47A84.24,84.24,0,0,0,183,223.13c1.65.75,2.77.81,3.36-1.27C188.51,214.2,190.76,206.56,193.18,198.21Zm-75.06.36c2.31,7.87,4.66,15.85,7,23.83a1.47,1.47,0,0,0,2.28,1c9.49-4.29,18.25-9.69,25.29-17.48,1.45-1.61,1.56-3.72-1.49-3.58-10.4.48-20.11-2-29.54-6.21C119.92,195.39,117.9,195.47,118.12,198.57ZM70,119.15H70c.24,4,.33,8,.75,11.91a10.54,10.54,0,0,0,8.86,9.43c3,.45,4.66.1,4-3.83A239.79,239.79,0,0,1,80.58,105c-.06-1.95,1.1-4.9-1.25-5.78-2.66-1-5.07,1-7,2.88a9.54,9.54,0,0,0-3,7.63C69.51,112.87,69.75,116,70,119.15Z"/><path class="cls-3" d="M247.71,134c.22-.37.43-.74.64-1.11"/><path class="cls-4" d="M156.43,343.45l1.08-.28"/><path class="cls-4" d="M152.38,343.18l1,.16"/><path class="cls-5" d="M303.19,301.23l-.44-1.17"/><path class="cls-4" d="M245.32,119.37c-.26,3.82-.36,7.65-.8,11.45-.94,8.07-8.33,12.12-15.29,8-4-2.36-4.74-.75-5.36,2.73C222,152,219,161.92,212.73,170.7c-10.27,14.31-23.57,23.94-41.15,26.57-15.92,2.38-31.87,3.19-47-4.13-16-7.73-26.66-20.28-32.1-37-8.21-25.24-9.07-51.31-7.54-77.56a49.14,49.14,0,0,0,.39-5c-.69-14.46,7-24.85,16.62-34.29a9.88,9.88,0,0,1,4.21-2.56c20.65-5.95,41.5-9.48,63.07-5.87a86.21,86.21,0,0,1,36.87,15.65,5.37,5.37,0,0,1,2.35,5c-.3,14.57.69,28.95,6.89,42.49.77,1.69.49,3.58.43,5.42-.2,6.15-.36,12.31-.33,18.46,0,2.71.56,5.52,3.83,6.26s5.45-1,7.08-3.55c2.68-4.15,3.54-8.88,4.37-13.66.58-3.31-1-8.31,5.27-8.12a10.41,10.41,0,0,1,9.84,9.54c.19,3.63-.27,7.3-.44,11ZM140.82,93.08c-1.49-1.4-2.75-2.49-3.89-3.69-12.52-13.34-35.15-8.82-41.29,8.4C92,108,94.1,117.24,101.8,124.88c7.39,7.35,18.16,8.91,28.22,4.3,2.41-1.11,3.75-2,4.82,1.64,1.38,4.7,5.42,7,10.1,7.89,1.32.25,3.33,1,3.86-1s-1-2.53-2.91-3c-6.54-1.49-8.66-4.62-7.61-11.16.61-3.75,1.7-7.42,2.55-11.14a3,3,0,0,1,3.48-2.64c6.34.29,11.62,1.14,14.63,8.41,4.12,9.94,15.72,15.11,26.1,13.15,11.79-2.22,19.58-10.7,21-22.87,1.15-9.76-5.42-20.66-15-24.91A25.07,25.07,0,0,0,162,90.27a27.33,27.33,0,0,0-6.27,15c-.16,1.26.23,2.48-2.1,2.24-11.39-1.19-11.41-1.11-8.7-12.18a4.3,4.3,0,0,0,.24-1c0-1.46,1.79-3.27-.69-4.28C141.59,88.87,142.17,92,140.82,93.08ZM117.43,60.53a21.7,21.7,0,0,0-14.61,5.9c-.8.73-2.06,1.41-.89,2.79,1,1.21,2.15,1.43,3.4.31,5.72-5.11,12.1-6.53,19.24-3.37,1.67.74,2.51,0,3-1.4.64-1.67-.83-1.92-1.8-2.38A22.57,22.57,0,0,0,117.43,60.53Zm57.25-1.15a24.2,24.2,0,0,0-8.8,1.73c-1.12.47-2.84.65-2,2.65.67,1.55,1.74,1.73,3.24,1.12a20.17,20.17,0,0,1,18.66,1.44c1.44.84,2.44.81,3.3-.65,1.1-1.88-.59-2.26-1.62-2.91A24.37,24.37,0,0,0,174.68,59.38Zm-28.55,94a25.26,25.26,0,0,0,13.68-3c1-.54,2.18-1.15,1.35-2.65-.75-1.35-1.68-1.79-3.24-.91a20.4,20.4,0,0,1-17.77,1.45c-1.52-.55-2.23.21-2.7,1.35-.6,1.49.4,2.06,1.61,2.48A19.72,19.72,0,0,0,146.13,153.39Z"/><path class="cls-1" d="M193.18,198.21c-2.42,8.35-4.67,16-6.85,23.65-.59,2.08-1.71,2-3.36,1.27A84.24,84.24,0,0,1,159.17,207c-1-.95-1.93-2-1.54-3.47.5-1.83,2.17-1.18,3.37-1.22a72.8,72.8,0,0,0,26.62-5.72C189.93,195.62,192.79,194.41,193.18,198.21Z"/><path class="cls-1" d="M118.12,198.57c-.22-3.1,1.8-3.18,3.55-2.4,9.43,4.18,19.14,6.69,29.54,6.21,3-.14,2.94,2,1.49,3.58-7,7.79-15.8,13.19-25.29,17.48a1.47,1.47,0,0,1-2.28-1C122.78,214.42,120.43,206.44,118.12,198.57Z"/><path class="cls-4" d="M70,119.15c-.21-3.14-.45-6.28-.62-9.43a9.54,9.54,0,0,1,3-7.63c1.93-1.86,4.34-3.87,7-2.88,2.35.88,1.19,3.83,1.25,5.78a239.79,239.79,0,0,0,3.07,31.67c.64,3.93-1.07,4.28-4,3.83a10.54,10.54,0,0,1-8.86-9.43c-.42-4-.51-7.94-.75-11.91Z"/><path class="cls-6" d="M140.82,93.08c1.35-1,.77-4.21,3.65-3,2.48,1,.66,2.82.69,4.28a4.3,4.3,0,0,1-.24,1c-2.71,11.07-2.69,11,8.7,12.18,2.33.24,1.94-1,2.1-2.24a27.33,27.33,0,0,1,6.27-15,25.07,25.07,0,0,1,29.06-6.63c9.57,4.25,16.14,15.15,15,24.91-1.42,12.17-9.21,20.65-21,22.87-10.38,2-22-3.21-26.1-13.15-3-7.27-8.29-8.12-14.63-8.41a3,3,0,0,0-3.48,2.64c-.85,3.72-1.94,7.39-2.55,11.14-1.05,6.54,1.07,9.67,7.61,11.16,1.9.43,3.46.89,2.91,3s-2.54,1.2-3.86,1c-4.68-.88-8.72-3.19-10.1-7.89-1.07-3.64-2.41-2.75-4.82-1.64-10.06,4.61-20.83,3-28.22-4.3C94.1,117.24,92,108,95.64,97.79c6.14-17.22,28.77-21.74,41.29-8.4C138.07,90.59,139.33,91.68,140.82,93.08Zm61.25,13.49C202,95,192,85.05,180.7,85.3a21.83,21.83,0,0,0-21,21.24,21.56,21.56,0,0,0,21.22,21.39A21.26,21.26,0,0,0,202.07,106.57Zm-83,21.36c9,0,14.9-4.52,17.06-13.17,1-3.87,1.9-7.74,2.88-11.6a6.64,6.64,0,0,0-.17-4.35c-3.79-9.42-15.06-15.2-24.9-12.67a21.22,21.22,0,0,0,5.13,41.79Z"/><path class="cls-6" d="M117.43,60.53a22.57,22.57,0,0,1,8.38,1.85c1,.46,2.44.71,1.8,2.38-.53,1.4-1.37,2.14-3,1.4-7.14-3.16-13.52-1.74-19.24,3.37-1.25,1.12-2.38.9-3.4-.31-1.17-1.38.09-2.06.89-2.79A21.7,21.7,0,0,1,117.43,60.53Z"/><path class="cls-6" d="M174.68,59.38a24.37,24.37,0,0,1,12.81,3.38c1,.65,2.72,1,1.62,2.91-.86,1.46-1.86,1.49-3.3.65a20.17,20.17,0,0,0-18.66-1.44c-1.5.61-2.57.43-3.24-1.12-.87-2,.85-2.18,2-2.65A24.2,24.2,0,0,1,174.68,59.38Z"/><path class="cls-6" d="M146.13,153.39a19.72,19.72,0,0,1-7.07-1.31c-1.21-.42-2.21-1-1.61-2.48.47-1.14,1.18-1.9,2.7-1.35a20.4,20.4,0,0,0,17.77-1.45c1.56-.88,2.49-.44,3.24.91.83,1.5-.31,2.11-1.35,2.65A25.26,25.26,0,0,1,146.13,153.39Z"/><path class="cls-7" d="M202.07,106.57a21.26,21.26,0,0,1-21.14,21.36,21.56,21.56,0,0,1-21.22-21.39,21.83,21.83,0,0,1,21-21.24C192,85.05,202,95,202.07,106.57Zm-15.45.31c-.27-3.54-2.14-5.73-5.65-5.76s-5.64,2.19-5.66,5.67c0,3.29,2.16,5.33,5.36,5.46C184.1,112.38,186.24,110.45,186.62,106.88Z"/><path class="cls-7" d="M119.05,127.93a21.22,21.22,0,0,1-5.13-41.79c9.84-2.53,21.11,3.25,24.9,12.67a6.64,6.64,0,0,1,.17,4.35c-1,3.86-1.91,7.73-2.88,11.6C134,123.41,128.07,128,119.05,127.93Zm10.84-21c-.21-3.54-2-5.75-5.55-5.79s-5.66,2.19-5.69,5.63a5.21,5.21,0,0,0,5.3,5.51C127.47,112.43,129.44,110.38,129.89,106.9Z"/><path class="cls-6" d="M186.62,106.88c-.38,3.57-2.52,5.5-6,5.37-3.2-.13-5.37-2.17-5.36-5.46,0-3.48,2.14-5.7,5.66-5.67S186.35,103.34,186.62,106.88Z"/><path class="cls-6" d="M129.89,106.9c-.45,3.48-2.42,5.53-5.94,5.35a5.21,5.21,0,0,1-5.3-5.51c0-3.44,2.17-5.66,5.69-5.63S129.68,103.36,129.89,106.9Z"/></g></g></svg>