<svg xmlns="http://www.w3.org/2000/svg" viewBox="0 0 306.62 334.23"><defs><style>.cls-1{fill:#fdc84b;}.cls-2{fill:#181513;}.cls-3{fill:#f5dcc3;}.cls-4{fill:#f3c9b2;}.cls-5{fill:#6e5043;}.cls-6{fill:#070606;}</style></defs><g id="Layer_2" data-name="Layer 2"><g id="Layer_1-2" data-name="Layer 1"><path class="cls-1" d="M303,334.18l-292.71-.07c-2,0-4-.12-6-.18,3.63-15.75,8.76-31,14.21-46.22,5.58-15.56,15.17-27.83,28.6-37.45a388.13,388.13,0,0,1,47.5-29.41c4.06-2.11,5.3-1.49,6.94,2.67,5.35,13.59,13.84,24.71,27.56,30.83,29.14,13,63-1.23,75.13-31.83,1.86-4.71,3.5-4.09,7-2.35a346.26,346.26,0,0,1,50.52,31.13,73.82,73.82,0,0,1,19.45,20.51c7.16,11.44,10.79,24.31,15,36.91C298.94,317,301.81,325.41,303,334.18Z"/><path class="cls-2" d="M303,334.18c-1.18-8.77-4.05-17.15-6.8-25.46-4.18-12.6-7.81-25.47-15-36.91a73.82,73.82,0,0,0-19.45-20.51,346.26,346.26,0,0,0-50.52-31.13c-3.51-1.74-5.15-2.36-7,2.35-12.13,30.6-46,44.84-75.13,31.83-13.72-6.12-22.21-17.24-27.56-30.83-1.64-4.16-2.88-4.78-6.94-2.67a388.13,388.13,0,0,0-47.5,29.41c-13.43,9.62-23,21.89-28.6,37.45C13.06,302.9,7.93,318.18,4.3,333.93c-2.6,0-5.43,1.54-3.84-3.9,2.1-7.14,5.18-14,6.51-21.36.13-.49.25-1,.38-1.46.32-1,.64-2.07,1-3.11a.68.68,0,0,0,.22-.89c4.08-8.14,4.86-17.47,9.32-25.5,4.05-7.27,8.31-14.15,14.33-20.23C45.9,243.63,62.64,234.17,78.83,224c10.06-6.31,21.26-10.93,32.3-15.44,3.59-1.47,7.77-2,12.2-3.62-18.53-9.45-31-23.13-35.35-43.25-.68-.87-1.33-.68-2,.06a18.46,18.46,0,0,1-7.52,1.35l-6-1.94c-6.29-3-8.44-8.39-8.67-14.9a1.68,1.68,0,0,0-.34-2.1q-.3-3-.59-5.91a1.71,1.71,0,0,0-.35-2.1c-.34-3.31-.69-6.61-1-9.91-.58-5.83.23-11.25,5.58-14.7,3.79-2.45,4.24-6.08,3.51-9.68C68.12,89.53,68.71,77,68.38,64.59c-.16-6,0-12.18,4.52-17.06,1.64-1.79-.09-2.68-1-3.7-5.28-6.28-8.15-13-6.51-21.6.91-4.79,2.68-4.56,6-3.06,1.2.54,2.48.88,3.72,1.31.79.73,1.82,1.19,2.54.3.47-.58-.18-1.49-.82-2-1.73-3.43-3.55-6.83-5.16-10.31-.81-1.75-1.78-3.84-.51-5.58s3.31-.53,5-.1c10.58,2.67,21.23,4.74,32.23,4.06l3-.58c4,0,8-.84,11.9-1.62a1.82,1.82,0,0,0,2.09-.46C137.37,2.66,149.16.39,161.19.06c14.78-.41,29,1.18,41.53,10.17,10.17,7.27,18.37,15.68,19.75,28.86.14,1.37.3,2.45,1.84,3.15,8.17,3.69,11.36,10.85,12.09,19.1,1.22,13.8-.45,27.56-1.5,41.31-.26,3.42-1.21,5.83,3.44,8.09,4.49,2.17,6.53,7.84,6.33,13.44-.06,1.66-.18,3.32-.28,5a3.55,3.55,0,0,0-.58,3.07q-.69,6.47-1.37,12.93a3.29,3.29,0,0,0-.55,3.08c-2,11.42-10.17,16.69-21.33,13.58-2-.56-2.7-.32-3.14,1.58-2.4,10.23-8,18.67-14.92,26.36-5.34,5.94-11.22,11.22-19.15,14.81,4.74,1.89,8.82,4,13.14,5.14,8.46,2.3,15.84,6.73,23.44,10.81,10.24,5.5,20.67,10.66,30,17.67,7.84,5.85,16.27,10.94,23.37,17.71,10.33,9.84,16.31,22.24,21.2,35.51,4.23,11.46,6.68,23.46,11.11,34.84.49,1.26.26,2.92.7,4.38C307.27,333.65,305.64,334.44,303,334.18ZM93.31,62.16c.28,1.8.48,3.61.87,5.39,2.67,12.41,3.43,25-1,37-3.35,9.09-3.67,18.1-3.57,27.39,0,3.5,0,7,0,10.49,0,34.45,22.47,60.36,56.55,65.22,27.5,3.93,57.56-15.18,66.38-41.46,4.21-12.53,3.56-25.23,3.92-38,.22-8.12-.06-15.87-5.45-22.58-.9-1.11-1.19-2.72-1.75-4.11-5-12.64-5.54-25.93-5.65-39.28,3.64-.45,4.94,1,4.73,4.77a81.92,81.92,0,0,0,5.05,33.76c1.3,3.48,2.79,7.12,5.39,9.39,1.9,1.66,4.5-2,7.17-2.13.64,0,1.27-.48,1.91-.51,2.14-.13,2.63-1.33,2.81-3.29C232,90.57,233,77,232.51,63.33c-.17-4.74-.49-10.4-4.42-12.79-7.71-4.7-9.41-12-12.36-19.54-5.58-14.32-18.38-21-32.37-24.87-14.9-4.09-30-1.81-45,.51-17.53,2.71-35,6.53-52.84,2.53-2.41-.54-5.82-2.76-7.41-.35-1.26,1.91,1.49,4.76,2.29,7.25,1,3.05,4.9,6.12,2.42,9-2.31,2.73-6.24.41-9.34-.57-3.36-1.06-4.15.13-3.7,3.38a23,23,0,0,0,9.57,16.26c1.72,1.23,3.15,3.15.81,4.24-7.37,3.46-7.38,10-7.62,16.48-.4,10.5,1.14,20.9,1.82,31.34.42,6.52.9,12.29,9.39,13.3,2.56.3,3.55.31,4.3-2.1,1.85-5.88,3.51-11.78,3.6-18,.1-7.33.14-14.62-1.84-21.79C89.07,64.93,88.49,61.65,93.31,62.16ZM150.5,236.47c14.52.11,26.75-7.83,31.7-20.72.74-1.93,2.69-4.49,1.11-6a8.72,8.72,0,0,0-7.95-1.77c-1,.23-1.92.55-2.87.86a60.23,60.23,0,0,1-28,2.52,60.93,60.93,0,0,1-11.6-2.79c-3.23-1.13-6.66-.86-9,1.21-1.84,1.64-.49,4.75.09,7.1C127.16,229.57,136.44,236.37,150.5,236.47Zm90.21-111.24c.18-5.54-1.8-9.21-5.71-11.77-3.69-2.42-7.4-2-11.35-.18s-3.13,5-3.23,8.07c-.29,10,.75,20-.57,29.92-.79,6,2.18,8.93,8.26,7.59,5.21-1.14,8.72-4.39,9.55-9.66C239,141,239.78,132.69,240.71,125.23ZM85.58,133.09c0-4.16,0-8.32,0-12.49,0-6.65-5.1-10.36-11.59-8.47-4.92,1.43-9,6.33-8.61,11.56.69,8.79,1.67,17.58,3.2,26.25,1.15,6.58,8.65,10.57,14.53,8.62,2.57-.85,4-2.11,3.36-5.07C85.1,146.75,85.68,139.9,85.58,133.09Zm60.17,110.38c0-5.46-4.26-3.35-6.48-4.41-1.14-.54-8.93,9.44-8.11,10.78,2.31,3.75,7.09,4.54,10.4,4C147.83,252.91,143.18,246.3,145.75,243.47Zm7.58,11.73c2.42-1.27,7,1.3,7.54-3,.75-5.57-2.75-12-5.43-12-5.77,0-7,2.38-7.09,12.13C148.3,256.66,151.43,254.42,153.33,255.2ZM162.48,241l2.35,10.23c.32,1.44,1.08,1.95,2.51,1.31,3.29-1.48,8-1.38,9.54-4.63,1-2.08-3-4.25-4.26-6.72-.6-1.18-1.63-2.13-2.25-3.29-1.18-2.23-2.75-1.38-4.16-.53S161.86,237.9,162.48,241Zm35.62-14.09c.42-2-.76-2.16-1.65-2.44-2.7-.82-5.61-1.2-8.1-2.44-4.74-2.36-5.94,1.57-7.29,4.14-1.69,3.23,2.26,2.73,3.57,4a10.15,10.15,0,0,0,3.47,1.92c1.77.65,3.5,3.29,5.24,1.69C195.48,231.81,196.75,228.92,198.1,226.89Zm-17.52,19c3.85-1.78,5.7-4.17,7.94-6.07,1.66-1.39,1.2-2.4-.54-3.31-3.07-1.62-6.13-3.27-9.14-5-2.17-1.24-3.35.37-4.77,1.42-1.88,1.41-.56,2.55.3,3.72,1.65,2.28,3.35,4.52,5,6.82A18.24,18.24,0,0,1,180.58,245.91Zm-54.33-15.17c-1.34-1.68-1.73-5.12-5.35-2.74-1.81,1.18-3.86,2-5.69,3.11-1.29.8-4,1-3.33,2.91a14.11,14.11,0,0,0,4.47,5.85c1.88,1.5,2.71-1.11,3.84-2a60.07,60.07,0,0,0,4.62-4.55C125.48,232.59,126.42,232,126.25,230.74Zm0,17.91a18.67,18.67,0,0,0,2.09-2.23c1.44-2.21,2.85-4.44,4.14-6.74.7-1.25,2.43-2.51-.18-3.94-1.69-.93-2.85-2-4.52,0-1.45,1.78-3.29,3.24-4.84,4.95-.92,1-3.08,2-2.15,3.37C122,245.86,124.22,247,126.26,248.65Zm63-37.32c-2.26-.18-1.85,1.88-2.38,3.08-.61,1.4-1.1,2.9,1.12,3.53,3.52,1,7,2.06,10.52,3,2,.54,2.6-.78,3.06-2.37.32-1.12,1-2.22-.62-2.85C197.11,214.26,193.23,212.81,189.29,211.33Zm-79.25,18c3.51-1.9,7.36-3.83,11-6.08,1.13-.7.1-2.13-.31-3.17s-1.18-1.06-2-.71c-3.51,1.48-7,3-10.51,4.49-1.27.54-1.9,1.34-1,2.68C107.87,227.55,108,229.15,110,229.32Zm7.48-17.76c-4.27,1.64-8.76,3.3-13.18,5.13-1.19.49-.69,1.69-.28,2.6s.84,1.73,2.19,1.12c3.92-1.76,7.88-3.42,11.83-5.09a1.83,1.83,0,0,0,1.19-2.36C119.08,212.12,118.89,211.31,117.52,211.56Z"/><path class="cls-3" d="M8.54,303.21a.68.68,0,0,1-.22.89,3.68,3.68,0,0,1-.17-.73S8.4,303.27,8.54,303.21Z"/><path class="cls-3" d="M7.35,307.21c-.13.48-.25,1-.38,1.46A1.09,1.09,0,0,1,7.35,307.21Z"/><path class="cls-4" d="M203.65,62.16c.11,13.35.61,26.64,5.65,39.28.56,1.39.85,3,1.75,4.11,5.39,6.71,5.67,14.46,5.45,22.58-.36,12.79.29,25.49-3.92,38-8.82,26.28-38.88,45.39-66.38,41.46-34.08-4.86-56.55-30.77-56.55-65.22,0-3.49,0-7,0-10.49-.1-9.29.22-18.3,3.57-27.39,4.4-11.92,3.64-24.55,1-37-.39-1.78-.59-3.59-.87-5.39Zm-63.88,68.63c.1-4.18,2.92-5.61,7.86-3.64,1.7.68,3.15.61,3.89-.74.9-1.64-1-2.2-2-2.81-3.22-2-6.64-2.27-9.93-.23s-4,5.21-3.6,8.72a17.16,17.16,0,0,0,5.65,10.85c.94.87,1.94,2.84,3.63,1.09s.35-2.84-1-4.05A13.5,13.5,0,0,1,139.77,130.79Zm11,34.59c4.22-.14,9.39-.24,13.89-3.22,1.21-.8,2.75-2,1.92-3.58s-2.47-.74-3.84,0c-8.2,4.19-16.47,4.09-24.69.09-1.43-.69-3-1.6-3.9-.06s.69,2.76,1.9,3.57C140.23,165,145,165.25,150.78,165.38ZM129,87.52c0-.78-.61-1-1.19-1.4-5.47-3.39-16.72-.58-20.11,5-.52.85-1.28,1.7-.18,2.55.89.7,2,1.53,3,.21,4.14-5.29,9.47-6.19,15.54-4.19C128.27,90.45,128.56,89,129,87.52Zm49.52-2.61a8.75,8.75,0,0,0-2.95.5c-1.38.55-4.16-.13-3.42,2.92.68,2.75,2.59,1.28,4,1,5.26-1.2,9.93-.52,13.51,3.94.95,1.18,1.93,1.84,3.34.73,1.62-1.27.54-2.32-.32-3.33C189.39,86.69,185.2,84.64,178.53,84.91Zm1,29.23c-3.27.38-5.41,2.28-5.44,5.44,0,3.37,2.07,5.78,5.62,5.68a5.18,5.18,0,0,0,5.39-5.86C184.9,116.15,182.78,114.4,179.49,114.14Zm-52.74,11.27c3-.52,5.3-2.25,5.27-5.5s-2-5.74-5.63-5.67-5.52,2.49-5.39,5.86C121.12,123.31,123.35,125.08,126.75,125.41Z"/><path class="cls-5" d="M203.65,62.16H93.31c-4.82-.51-4.24,2.77-3.49,5.49,2,7.17,1.94,14.46,1.84,21.79-.09,6.22-1.75,12.12-3.6,18-.75,2.41-1.74,2.4-4.3,2.1-8.49-1-9-6.78-9.39-13.3C73.69,85.8,72.15,75.4,72.55,64.9c.24-6.46.25-13,7.62-16.48,2.34-1.09.91-3-.81-4.24a23,23,0,0,1-9.57-16.26c-.45-3.25.34-4.44,3.7-3.38,3.1,1,7,3.3,9.34.57,2.48-2.92-1.43-6-2.42-9-.8-2.49-3.55-5.34-2.29-7.25,1.59-2.41,5-.19,7.41.35,17.88,4,35.31.18,52.84-2.53,15-2.32,30.09-4.6,45-.51,14,3.84,26.79,10.55,32.37,24.87,3,7.57,4.65,14.84,12.36,19.54,3.93,2.39,4.25,8.05,4.42,12.79.49,13.66-.56,27.24-1.8,40.82-.18,2-.67,3.16-2.81,3.29-.64,0-1.27.48-1.91.51-2.67.14-5.27,3.79-7.17,2.13-2.6-2.27-4.09-5.91-5.39-9.39a81.92,81.92,0,0,1-5.05-33.76C208.59,63.15,207.29,61.71,203.65,62.16ZM186.47,46.62a28.34,28.34,0,0,0-1.95-2.75c-5.88-6.78-13.43-10.59-22.07-12.69-13.92-3.38-28.91-3.5-40.78-13.2-1.24-1-2.14-.41-3,.52-1.18,1.3-.16,2.11.73,2.85a35.19,35.19,0,0,0,3.18,2.39c7.38,4.88,15.74,6.84,24.29,8.4,13.55,2.49,27.52,4.2,36.51,16.71a1.38,1.38,0,0,0,2.11.48C186.23,48.84,186.64,48.15,186.47,46.62ZM151.3,52.11c1.77-.7,4.69,1.18,5-1.89.32-3.34-2.87-2.08-4.45-2.27a81.44,81.44,0,0,1-20.74-4.81,94.4,94.4,0,0,1-24.9-14.36c-1-.85-2.37-2.22-3.86-.5-1.23,1.41-.35,2.3.81,3.25A90.59,90.59,0,0,0,151.3,52.11Zm-30.36,6.14a24.83,24.83,0,0,0,3,0c1.65-.22,4.29.8,4.41-1.86.15-3.37-2.85-2.08-4.5-2C111,54.71,100.2,50.1,91.38,40.79c-1-1.11-2.11-2.43-3.74-1s-.25,2.63.73,3.7A43.92,43.92,0,0,0,120.94,58.25Z"/><path class="cls-4" d="M150.5,236.47c-14.06-.1-23.34-6.9-26.51-19.57-.58-2.35-1.93-5.46-.09-7.1,2.31-2.07,5.74-2.34,9-1.21a60.93,60.93,0,0,0,11.6,2.79,60.23,60.23,0,0,0,28-2.52c.95-.31,1.9-.63,2.87-.86a8.72,8.72,0,0,1,7.95,1.77c1.58,1.49-.37,4-1.11,6C177.25,228.64,165,236.58,150.5,236.47Z"/><path class="cls-4" d="M240.71,125.23c-.93,7.46-1.75,15.75-3.05,24-.83,5.27-4.34,8.52-9.55,9.66-6.08,1.34-9.05-1.55-8.26-7.59,1.32-9.94.28-20,.57-29.92.1-3.09-.64-6.28,3.23-8.07s7.66-2.24,11.35.18C238.91,116,240.89,119.69,240.71,125.23Z"/><path class="cls-4" d="M85.58,133.09c.1,6.81-.48,13.66.89,20.4.6,3-.79,4.22-3.36,5.07-5.88,1.95-13.38-2-14.53-8.62-1.53-8.67-2.51-17.46-3.2-26.25-.42-5.23,3.69-10.13,8.61-11.56,6.49-1.89,11.57,1.82,11.59,8.47C85.59,124.77,85.58,128.93,85.58,133.09Z"/><path class="cls-1" d="M145.75,243.47c-2.57,2.83,2.08,9.44-4.19,10.41-3.31.5-8.09-.29-10.4-4-.82-1.34,7-11.32,8.11-10.78C141.49,240.12,145.78,238,145.75,243.47Z"/><path class="cls-1" d="M153.33,255.2c-1.9-.78-5,1.46-5-2.92.1-9.75,1.32-12.1,7.09-12.13,2.68,0,6.18,6.46,5.43,12C160.29,256.5,155.75,253.93,153.33,255.2Z"/><path class="cls-1" d="M162.48,241c-.62-3.08,2.24-2.73,3.73-3.63s3-1.7,4.16.53c.62,1.16,1.65,2.11,2.25,3.29,1.26,2.47,5.27,4.64,4.26,6.72-1.58,3.25-6.25,3.15-9.54,4.63-1.43.64-2.19.13-2.51-1.31Z"/><path class="cls-1" d="M198.1,226.89c-1.35,2-2.62,4.92-4.76,6.86-1.74,1.6-3.47-1-5.24-1.69a10.15,10.15,0,0,1-3.47-1.92c-1.31-1.26-5.26-.76-3.57-4,1.35-2.57,2.55-6.5,7.29-4.14,2.49,1.24,5.4,1.62,8.1,2.44C197.34,224.73,198.52,224.85,198.1,226.89Z"/><path class="cls-1" d="M180.58,245.91a18.24,18.24,0,0,0-1.25-2.42c-1.61-2.3-3.31-4.54-5-6.82-.86-1.17-2.18-2.31-.3-3.72,1.42-1,2.6-2.66,4.77-1.42,3,1.73,6.07,3.38,9.14,5,1.74.91,2.2,1.92.54,3.31C186.28,241.74,184.43,244.13,180.58,245.91Z"/><path class="cls-1" d="M126.25,230.74c.17,1.29-.77,1.85-1.44,2.54a60.07,60.07,0,0,1-4.62,4.55c-1.13.93-2,3.54-3.84,2a14.11,14.11,0,0,1-4.47-5.85c-.7-1.92,2-2.11,3.33-2.91,1.83-1.14,3.88-1.93,5.69-3.11C124.52,225.62,124.91,229.06,126.25,230.74Z"/><path class="cls-1" d="M126.26,248.65c-2-1.64-4.22-2.79-5.46-4.59-.93-1.36,1.23-2.36,2.15-3.37,1.55-1.71,3.39-3.17,4.84-4.95,1.67-2,2.83-.93,4.52,0,2.61,1.43.88,2.69.18,3.94-1.29,2.3-2.7,4.53-4.14,6.74A18.67,18.67,0,0,1,126.26,248.65Z"/><path class="cls-1" d="M189.29,211.33c3.94,1.48,7.82,2.93,11.7,4.4,1.64.63.94,1.73.62,2.85-.46,1.59-1.09,2.91-3.06,2.37-3.52-.95-7-2-10.52-3-2.22-.63-1.73-2.13-1.12-3.53C187.44,213.21,187,211.15,189.29,211.33Z"/><path class="cls-1" d="M110,229.32c-2.09-.17-2.17-1.77-2.86-2.79-.89-1.34-.26-2.14,1-2.68,3.51-1.5,7-3,10.51-4.49.85-.35,1.63-.29,2,.71s1.44,2.47.31,3.17C117.4,225.49,113.55,227.42,110,229.32Z"/><path class="cls-1" d="M117.52,211.56c1.37-.25,1.56.56,1.75,1.4a1.83,1.83,0,0,1-1.19,2.36c-4,1.67-7.91,3.33-11.83,5.09-1.35.61-1.77-.19-2.19-1.12s-.91-2.11.28-2.6C108.76,214.86,113.25,213.2,117.52,211.56Z"/><path class="cls-2" d="M139.77,130.79a13.5,13.5,0,0,0,4.51,9.19c1.32,1.21,2.6,2.36,1,4.05s-2.69-.22-3.63-1.09A17.16,17.16,0,0,1,136,132.09c-.4-3.51.39-6.72,3.6-8.72s6.71-1.74,9.93.23c1,.61,2.92,1.17,2,2.81-.74,1.35-2.19,1.42-3.89.74C142.69,125.18,139.87,126.61,139.77,130.79Z"/><path class="cls-2" d="M150.78,165.38c-5.74-.13-10.55-.42-14.72-3.24-1.21-.81-2.77-2.08-1.9-3.57s2.47-.63,3.9.06c8.22,4,16.49,4.1,24.69-.09,1.37-.7,2.95-1.62,3.84,0s-.71,2.78-1.92,3.58C160.17,165.14,155,165.24,150.78,165.38Z"/><path class="cls-2" d="M129,87.52c-.45,1.43-.74,2.93-2.94,2.2-6.07-2-11.4-1.1-15.54,4.19-1,1.32-2.11.49-3-.21-1.1-.85-.34-1.7.18-2.55,3.39-5.61,14.64-8.42,20.11-5C128.4,86.47,129,86.74,129,87.52Z"/><path class="cls-2" d="M178.53,84.91c6.67-.27,10.86,1.78,14.17,5.71.86,1,1.94,2.06.32,3.33-1.41,1.11-2.39.45-3.34-.73-3.58-4.46-8.25-5.14-13.51-3.94-1.42.33-3.33,1.8-4-1-.74-3,2-2.37,3.42-2.92A8.75,8.75,0,0,1,178.53,84.91Z"/><path class="cls-2" d="M179.49,114.14c3.29.26,5.41,2,5.57,5.26a5.18,5.18,0,0,1-5.39,5.86c-3.55.1-5.65-2.31-5.62-5.68C174.08,116.42,176.22,114.52,179.49,114.14Z"/><path class="cls-2" d="M126.75,125.41c-3.4-.33-5.63-2.1-5.75-5.31-.13-3.37,1.76-5.8,5.39-5.86s5.6,2.3,5.63,5.67S129.77,124.89,126.75,125.41Z"/><path class="cls-6" d="M186.47,46.62c.17,1.53-.24,2.22-1,2.71a1.38,1.38,0,0,1-2.11-.48c-9-12.51-23-14.22-36.51-16.71-8.55-1.56-16.91-3.52-24.29-8.4a35.19,35.19,0,0,1-3.18-2.39c-.89-.74-1.91-1.55-.73-2.85.85-.93,1.75-1.53,3-.52,11.87,9.7,26.86,9.82,40.78,13.2,8.64,2.1,16.19,5.91,22.07,12.69A28.34,28.34,0,0,1,186.47,46.62Z"/><path class="cls-6" d="M151.3,52.11a90.59,90.59,0,0,1-48.15-20.58c-1.16-1-2-1.84-.81-3.25,1.49-1.72,2.81-.35,3.86.5a94.4,94.4,0,0,0,24.9,14.36A81.44,81.44,0,0,0,151.84,48c1.58.19,4.77-1.07,4.45,2.27C156,53.29,153.07,51.41,151.3,52.11Z"/><path class="cls-6" d="M120.94,58.25A43.92,43.92,0,0,1,88.37,43.48c-1-1.07-2.48-2.17-.73-3.7s2.69-.1,3.74,1C100.2,50.1,111,54.71,123.84,54.34c1.65-.05,4.65-1.34,4.5,2-.12,2.66-2.76,1.64-4.41,1.86A24.83,24.83,0,0,1,120.94,58.25Z"/></g></g></svg>