<svg xmlns="http://www.w3.org/2000/svg" viewBox="0 0 288.77 342.27"><defs><style>.cls-1{fill:#c0d8c8;}.cls-2{fill:#181513;}.cls-3{fill:#f5dcc3;}.cls-4{fill:#fa8e61;}</style></defs><g id="Layer_2" data-name="Layer 2"><g id="Layer_1-2" data-name="Layer 1"><path class="cls-1" d="M285.06,342H10.91c-2.32,0-4.65-.1-7-.16,2-10.62,3.54-21.35,6.05-31.86,7.22-30.26,24.67-52.75,52.72-66.44C78.1,236,94.58,231,110.48,224.65c2.63-1.05,3,.23,3.7,2.17,5,13.33,16.46,21.59,29.95,21.71s25.38-8.11,30.25-21.26c1.13-3.06,2.28-3.26,5-2.2,13.94,5.44,28.16,10.23,41.9,16.14,24.43,10.5,42.13,28,52.39,52.79C280.05,309.39,281.58,325.9,285.06,342Z"/><path class="cls-2" d="M285.06,342c-3.48-16.06-5-32.57-11.38-48-10.26-24.78-28-42.29-52.39-52.79-13.74-5.91-28-10.7-41.9-16.14-2.73-1.06-3.88-.86-5,2.2-4.87,13.15-16.83,21.38-30.25,21.26s-25-8.38-29.95-21.71c-.72-1.94-1.07-3.22-3.7-2.17C94.58,231,78.1,236,62.7,243.5,34.65,257.19,17.2,279.68,10,309.94c-2.51,10.51-4.06,21.24-6.05,31.86-2.56.89-4.58.73-3.74-2.72,4.14-17,4.64-34.82,12.32-50.93a101.4,101.4,0,0,1,39-43.43c16.9-10.51,36.19-14.71,54.1-22.45,1.65-.71,3.6-1.05,4.91-2.16,2.8-2.36,2-6.52-1.23-8.21-1-.5-2.48-.65-2.93-1.43-3.36-5.83-8.9-6.33-14.78-6.85-11.56-1-17.78-13.61-15.18-24,.08-.32-.1-.88.06-1,8.36-5.1,1.75-10.42.25-15.66.52-3-1-3.87-3.69-3.61-9.41-2.13-13.56-9.27-15.65-17.61-1.85-7.38-2.64-15,0-22.58,1.53-4.45,3.41-8.75,8-10.78a2.4,2.4,0,0,0,1.71-2.92,209.64,209.64,0,0,1,2.28-54.39,46.24,46.24,0,0,1,11.75-24c2.69-3,4.48-7.2,6.72-10.56C90.27,13,95.52,11.16,99.78,9,109.61,4.12,120.25,2,131.06.54l2.13-.2A127.91,127.91,0,0,1,177.66,4.8c13.88,4,26.49,10.65,35.5,21.82,5.08,6.3,7.41,14.79,9,23.13,3.35,17.51,2.44,35,.84,52.58-.28,3,0,5.23,2.94,7.35,9.53,6.89,8.63,17.21,8.08,27.28a1.9,1.9,0,0,0-.55,2.07c-1.93,9.14-5.86,16.77-15.25,20.3l-3.19.21-6.41-1.11c-4.69-1.75-2.7,1.8-2.88,3.64-.28,3.13,2.67,4.62,3.64,7.24,4.26,11.52-.8,20.2-14.27,23.82-.59,0-.83.19-.56.78-2.33,8.45-7.54,13.76-16.4,15.11-.77-.05-1.65-.24-1.4,1.06-.81,9.71-.75,9.56,7.89,13,15.06,6,30.68,10.54,45.2,17.88,14.14,7.15,25.54,17.36,35.28,29.85,13,16.63,17.68,36.11,21,56.23.64,3.88,1,7.87,2.23,11.59C289.6,342.53,287.94,342.61,285.06,342Zm-204-193.21c6.13-4.78,12-7,18.8-5.91,2.32.36,2.15-1.48,2.57-2.81,2.14-6.75,6.09-9.71,13.23-9.83,2.4,0,4.8,0,7.4,0-.24-1.35-.53-2.64-.68-3.94-.5-4.45-.48-9,4-11.48,4.15-2.36,7.78,0,10.87,2.63,1.55,1.3,5,2.72,3.17,5.16-2.4,3.24-3.56-1-5.3-1.87-.29-.14-.49-.45-.77-.62-1.82-1.1-3.56-2.95-5.88-1.81-2.52,1.22-2.28,3.82-2.29,6.14,0,.83.23,1.65.3,2.48.36,3.93,1.08,5.66,6,3.7,7.3-2.9,15.22-4.57,21.65,2.61,1.21,1.36,2.44.45,3.67.18a29.86,29.86,0,0,1,18.52,1.48c4.61,2,5.94,7,9.14,9.76s8.69,2.47,12.1,6.12c2.44,2.61,2.3,6.12,3.3,9.22,1.3-.48,1.1-1.24,1.13-1.83.93-23.61,2-47.21,2.67-70.82.26-9.82-.61-19.65-4.54-28.89C196.36,49.54,194,48.29,185,50.27c-7.63,1.66-10.34.49-13.22-5.83-5.65,2.81-11.26,5.69-16.95,8.4-5,2.37-10.05,4.49-15.54,5.28-5.18.75-8.12-1.06-8.11-5.47,0-3.35-1-3-3.42-2.2-7.37,2.61-14.76,5.2-22.56,6.28-3.31.46-7,1.24-9.79-.58-3.44-2.23-5.11-.34-7,1.74-4.78,5.28-7,11.77-7.73,18.63C77.92,100.26,79,124,81.08,148.75Zm92.06,56.5c10.1-.08,15.38-4.07,17.77-13.9.57-2.33,1.46-2.84,3.69-2.84,6.37,0,10.16-2.82,11.58-8.14,1.65-6.2-.46-12.72-5.51-15.24-3.38-1.69-6.88-2.58-4.6-7.62.61-1.35-.71-2.82-1.71-4a11.34,11.34,0,0,0-9.32-4c-2.84.1-4.3-.85-4.58-3.85-.34-3.74-3-5.86-6.2-7.19a24.11,24.11,0,0,0-18.5-.11c-2.45.94-4.37,2-5-1.88-.38-2.54-2.56-3.33-4.8-3.64-5.09-.73-10.25-.35-14.44,2.58-3.23,2.26-5.21,2.27-8.66.26-8.21-4.78-15.93-.17-16.19,9.24-.07,2.72-1.36,3.07-3.55,2.43a19,19,0,0,0-9.4-.45c-6.22,1.32-11.33,4.42-13.06,10.93-1.52,5.71,2.06,9.48,6.21,12.56,3.41,2.52,2.51,3.81-.74,5.53-6.76,3.58-8.25,9-4.61,15.37,4,7,10.76,9.79,18.67,7.59,1.81-.5,3.36-1.29,4.56,1.16,4.2,8.55,11.54,11.23,19.89,6.81,3.29-1.74,4.8-1.66,7.28,1.34a14.55,14.55,0,0,0,25-3.89c1.12-2.76,2.47-2.6,4.58-1.59A23.77,23.77,0,0,0,173.14,205.25Zm35.47-95c2.75-1.29,4.76-3,7.31-3.15,2.7-.16,3-1.77,3.23-4a271.26,271.26,0,0,0,1-40.41C218.87,39.09,209.28,21.09,186.3,12a113.4,113.4,0,0,0-66.24-5.59c-14.35,3-27.54,8.29-34.32,22.92A6.49,6.49,0,0,1,84,31.1a30.14,30.14,0,0,0-8.17,12.95c-6.69,19.69-6,40-4.82,60.31.09,1.56.62,2.52,2.35,2.51,2.21,0,1.62-1.68,1.67-2.87.33-7.3.43-14.63.94-21.92.65-9.38,2.28-18.56,8.62-26.06,2.24-2.64,5.76-4.52,7.21-7.47C97.63,36.66,107.57,29,118,21.67a43.81,43.81,0,0,1,13.8-6.85c1.17-.31,2.69-1.24,3.3.77s-.64,2.54-2.25,3.09c-11.65,4-20.82,11.63-29.36,20.17a38.82,38.82,0,0,0-6.38,8.29c-2.29,4-1.21,5.89,3.48,5.83a39.32,39.32,0,0,0,7.41-.85c8.32-1.74,16.25-4.73,24.19-7.7,1.4-.52,2.81-1.25,4.21-.05,1.19,1,.37,2.06,0,3.16-.58,2-2.35,4.17-.38,6s4.14.1,6.2-.2a21.07,21.07,0,0,0,4.23-1.48c10.14-3.86,19.53-9.22,29-14.44,1.24-.69,2.51-2,4-.45s.06,2.7-.62,3.94c-.85,1.53-2.8,3-1.5,4.86s3.66,1.18,5.55.76A54,54,0,0,0,197,41.61c1.11-.59,2.16-1,3,.37.72,1.13.93,2.32-.56,2.87-3.54,1.3-1.38,2.55-.19,4.11a35.18,35.18,0,0,1,5.32,9.55c4.21,11.82,4.51,24.05,4.11,36.39C208.48,99.83,208.61,104.77,208.61,110.25ZM172.53,214.7c1.1-3.91-.88-6-5.6-6a8.87,8.87,0,0,1-3.84-1c-1.72-.86-2.64-.59-3.47,1.22-4.41,9.58-20,11.81-29,3.72-2.27-2-3.87-2.44-6.39-1.21a8.5,8.5,0,0,1-3.84,1c-4-.18-4.36,2.06-4.19,5.31.78,14.68,13.65,27,28.29,26.89C160.09,244.5,172.34,231.79,172.53,214.7Zm34.8-78.51H207c-.2,3.65-.49,7.29-.6,10.94-.21,7,6.07,10.83,12.5,7.59a17.24,17.24,0,0,0,4.74-3.57c6.68-7.09,9.06-24.29,4.7-33-2.64-5.28-7.37-8.07-11.91-7a12.2,12.2,0,0,0-9.07,11.61C207.24,127.21,207.33,131.7,207.33,136.19ZM77.57,153.54c-1.21-13.75-2-26.66-2.35-39.59-.11-4.06-3.17-3.44-5.41-2.63-4.73,1.7-7.36,5.5-8.53,10.27-2.11,8.54-1,16.85,2.57,24.77a16.77,16.77,0,0,0,9.52,9C75.89,156.32,77.65,155.9,77.57,153.54Z"/><path class="cls-3" d="M81.08,148.75c-2-24.75-3.16-48.49-.45-72.23.78-6.86,3-13.35,7.73-18.63,1.89-2.08,3.56-4,7-1.74,2.82,1.82,6.48,1,9.79.58,7.8-1.08,15.19-3.67,22.56-6.28,2.4-.85,3.42-1.15,3.42,2.2,0,4.41,2.93,6.22,8.11,5.47,5.49-.79,10.58-2.91,15.54-5.28,5.69-2.71,11.3-5.59,16.95-8.4,2.88,6.32,5.59,7.49,13.22,5.83,9-2,11.41-.73,15.17,8.14,3.93,9.24,4.8,19.07,4.54,28.89-.65,23.61-1.74,47.21-2.67,70.82,0,.59.17,1.35-1.13,1.83-1-3.1-.86-6.61-3.3-9.22-3.41-3.65-9-3.44-12.1-6.12s-4.53-7.81-9.14-9.76a29.86,29.86,0,0,0-18.52-1.48c-1.23.27-2.46,1.18-3.67-.18-6.43-7.18-14.35-5.51-21.65-2.61-4.94,2-5.66.23-6-3.7-.07-.83-.31-1.65-.3-2.48,0-2.32-.23-4.92,2.29-6.14,2.32-1.14,4.06.71,5.88,1.81.28.17.48.48.77.62,1.74.89,2.9,5.11,5.3,1.87,1.8-2.44-1.62-3.86-3.17-5.16-3.09-2.61-6.72-5-10.87-2.63-4.44,2.52-4.46,7-4,11.48.15,1.3.44,2.59.68,3.94-2.6,0-5,0-7.4,0-7.14.12-11.09,3.08-13.23,9.83-.42,1.33-.25,3.17-2.57,2.81C93.1,141.77,87.21,144,81.08,148.75ZM166.94,78.5A18.37,18.37,0,0,0,155,82.94c-.89.75-2.5,1.51-1,3.15,1.15,1.28,2.19,1,3.43,0,6.63-5.21,13.09-5,19.22.86,1.28,1.22,2.32,1.06,3.4-.06s.2-2.11-.63-2.92A18.8,18.8,0,0,0,166.94,78.5Zm-48.15,7.3c-.33-.48-.54-.74-.71-1-4.34-7.42-21.29-8-26.1-1-.71,1-.69,1.74.21,2.52s1.62,1.16,2.61.32c7-5.89,13.74-5.6,20.29.69a1.69,1.69,0,0,0,2.6-.11A9.85,9.85,0,0,0,118.79,85.8Zm48.26,35.59c3.16-.27,5.47-2,5.56-5.48s-1.88-5.66-5.42-5.77-5.74,2-5.86,5.36S163.31,120.94,167.05,121.39Zm-55.4,0c3.43-.44,5.57-2.29,5.47-5.85a5.14,5.14,0,0,0-5.37-5.4c-3.56-.1-5.74,2.08-5.81,5.51S108.14,121,111.65,121.39Z"/><path class="cls-4" d="M173.14,205.25a23.77,23.77,0,0,1-11.61-2.49c-2.11-1-3.46-1.17-4.58,1.59a14.55,14.55,0,0,1-25,3.89c-2.48-3-4-3.08-7.28-1.34-8.35,4.42-15.69,1.74-19.89-6.81-1.2-2.45-2.75-1.66-4.56-1.16-7.91,2.2-14.67-.58-18.67-7.59C77.92,185,79.41,179.55,86.17,176c3.25-1.72,4.15-3,.74-5.53-4.15-3.08-7.73-6.85-6.21-12.56,1.73-6.51,6.84-9.61,13.06-10.93a19,19,0,0,1,9.4.45c2.19.64,3.48.29,3.55-2.43.26-9.41,8-14,16.19-9.24,3.45,2,5.43,2,8.66-.26,4.19-2.93,9.35-3.31,14.44-2.58,2.24.31,4.42,1.1,4.8,3.64.59,3.88,2.51,2.82,5,1.88a24.11,24.11,0,0,1,18.5.11c3.2,1.33,5.86,3.45,6.2,7.19.28,3,1.74,3.95,4.58,3.85a11.34,11.34,0,0,1,9.32,4c1,1.14,2.32,2.61,1.71,4-2.28,5,1.22,5.93,4.6,7.62,5.05,2.52,7.16,9,5.51,15.24-1.42,5.32-5.21,8.13-11.58,8.14-2.23,0-3.12.51-3.69,2.84C188.52,201.18,183.24,205.17,173.14,205.25Zm-37.72-42.92A18.84,18.84,0,0,0,152,154.44c.78-1.05,2.69-2.06.8-3.68-1.59-1.36-2.57-.23-3.7,1-7.67,7.89-11.86,8.58-21.88,3.56a2.58,2.58,0,0,0-3.18.25c-1.36,1.22,0,2.09.71,2.84C127.57,161.25,131.1,162.45,135.42,162.33Z"/><path class="cls-4" d="M208.61,110.25c0-5.48-.13-10.42,0-15.35.4-12.34.1-24.57-4.11-36.39A35.18,35.18,0,0,0,199.21,49c-1.19-1.56-3.35-2.81.19-4.11,1.49-.55,1.28-1.74.56-2.87-.85-1.34-1.9-1-3-.37a54,54,0,0,1-14.06,4.92c-1.89.42-4.2,1.18-5.55-.76s.65-3.33,1.5-4.86c.68-1.24,2.17-2.36.62-3.94s-2.77-.24-4,.45C166,42.64,156.6,48,146.46,51.86a21.07,21.07,0,0,1-4.23,1.48c-2.06.3-4.37,1.9-6.2.2s-.2-4,.38-6c.32-1.1,1.14-2.15,0-3.16-1.4-1.2-2.81-.47-4.21.05-7.94,3-15.87,6-24.19,7.7a39.32,39.32,0,0,1-7.41.85c-4.69.06-5.77-1.79-3.48-5.83a38.82,38.82,0,0,1,6.38-8.29c8.54-8.54,17.71-16.17,29.36-20.17,1.61-.55,2.84-1.17,2.25-3.09s-2.13-1.08-3.3-.77A43.81,43.81,0,0,0,118,21.67c-10.39,7.3-20.33,15-26.16,26.88-1.45,3-5,4.83-7.21,7.47-6.34,7.5-8,16.68-8.62,26.06C75.46,89.37,75.36,96.7,75,104c0,1.19.54,2.85-1.67,2.87-1.73,0-2.26-1-2.35-2.51C69.84,84,69.14,63.74,75.83,44.05A30.14,30.14,0,0,1,84,31.1a6.49,6.49,0,0,0,1.74-1.77c6.78-14.63,20-19.92,34.32-22.92A113.4,113.4,0,0,1,186.3,12c23,9.09,32.57,27.09,33.82,50.68a271.26,271.26,0,0,1-1,40.41c-.21,2.24-.53,3.85-3.23,4C213.37,107.26,211.36,109,208.61,110.25Z"/><path class="cls-3" d="M172.53,214.7c-.19,17.09-12.44,29.8-28.05,29.91-14.64.11-27.51-12.21-28.29-26.89-.17-3.25.16-5.49,4.19-5.31a8.5,8.5,0,0,0,3.84-1c2.52-1.23,4.12-.83,6.39,1.21,9,8.09,24.6,5.86,29-3.72.83-1.81,1.75-2.08,3.47-1.22a8.87,8.87,0,0,0,3.84,1C171.65,208.71,173.63,210.79,172.53,214.7Z"/><path class="cls-3" d="M207.33,136.19c0-4.49-.09-9,0-13.46a12.2,12.2,0,0,1,9.07-11.61c4.54-1.05,9.27,1.74,11.91,7,4.36,8.72,2,25.92-4.7,33a17.24,17.24,0,0,1-4.74,3.57c-6.43,3.24-12.71-.61-12.5-7.59.11-3.65.4-7.29.6-10.94Z"/><path class="cls-3" d="M77.57,153.54c.08,2.36-1.68,2.78-4.2,1.81a16.77,16.77,0,0,1-9.52-9c-3.52-7.92-4.68-16.23-2.57-24.77,1.17-4.77,3.8-8.57,8.53-10.27,2.24-.81,5.3-1.43,5.41,2.63C75.59,126.88,76.36,139.79,77.57,153.54Z"/><path class="cls-2" d="M166.94,78.5A18.8,18.8,0,0,1,179.44,84c.83.81,1.81,1.68.63,2.92s-2.12,1.28-3.4.06c-6.13-5.84-12.59-6.07-19.22-.86-1.24,1-2.28,1.28-3.43,0-1.48-1.64.13-2.4,1-3.15A18.37,18.37,0,0,1,166.94,78.5Z"/><path class="cls-2" d="M118.79,85.8a9.85,9.85,0,0,1-1.1,1.39,1.69,1.69,0,0,1-2.6.11c-6.55-6.29-13.32-6.58-20.29-.69-1,.84-1.8.37-2.61-.32s-.92-1.48-.21-2.52c4.81-7,21.76-6.41,26.1,1C118.25,85.06,118.46,85.32,118.79,85.8Z"/><path class="cls-2" d="M167.05,121.39c-3.74-.45-5.84-2.53-5.72-5.89s2.36-5.47,5.86-5.36,5.51,2.39,5.42,5.77S170.21,121.12,167.05,121.39Z"/><path class="cls-2" d="M111.65,121.39c-3.51-.37-5.78-2.24-5.71-5.74s2.25-5.61,5.81-5.51a5.14,5.14,0,0,1,5.37,5.4C117.22,119.1,115.08,121,111.65,121.39Z"/><path class="cls-2" d="M135.42,162.33c-4.32.12-7.85-1.08-10.69-4-.74-.75-2.07-1.62-.71-2.84a2.58,2.58,0,0,1,3.18-.25c10,5,14.21,4.33,21.88-3.56,1.13-1.18,2.11-2.31,3.7-1,1.89,1.62,0,2.63-.8,3.68A18.84,18.84,0,0,1,135.42,162.33Z"/></g></g></svg>