<svg xmlns="http://www.w3.org/2000/svg" viewBox="0 0 257.73 333.63"><defs><style>.cls-1{fill:#fa8e61;}.cls-2{fill:#181513;}.cls-3{fill:#f5dcc3;}.cls-4{fill:#ab573d;}.cls-5{fill:#fefefe;}.cls-6{fill:#070606;}</style></defs><g id="Layer_2" data-name="Layer 2"><g id="Layer_1-2" data-name="Layer 1"><path class="cls-1" d="M253.84,333.17c-.66.05-1.33.15-2,.15q-122.39,0-244.78,0a29.76,29.76,0,0,1-3-.26C6,323.59,7.76,314.1,9.78,304.66c4.49-21,15.88-37.42,33.37-49.77,11.69-8.26,25.2-12.78,38-18.73,5.47-2.54,5.56-2.42,6.17,3.51,3.11,30.42,18.09,54.89,38.39,76.72,2,2.19,3.81,2.93,6.18.35,20.67-22.4,36.16-47.35,38.71-78.63.27-3.3.91-4.5,4.44-2.83,8.43,4,17.13,7.39,25.54,11.42,20.8,10,36.51,25,44.34,47.07C249.46,306.49,251.37,319.92,253.84,333.17Z"/><path class="cls-2" d="M253.84,333.17c-2.47-13.25-4.38-26.68-8.9-39.4-7.83-22.08-23.54-37.11-44.34-47.07-8.41-4-17.11-7.44-25.54-11.42-3.53-1.67-4.17-.47-4.44,2.83-2.55,31.28-18,56.23-38.71,78.63-2.37,2.58-4.15,1.84-6.18-.35-20.3-21.83-35.28-46.3-38.39-76.72-.61-5.93-.7-6-6.17-3.51-12.82,6-26.33,10.47-38,18.73-17.49,12.35-28.88,28.76-33.37,49.77-2,9.44-3.8,18.93-5.68,28.39-1.12.85-2.34.58-3.55.31-.18-.72-.37-1.44-.55-2.15.55-2.64,1.09-5.27,1.64-7.91a1.88,1.88,0,0,0,.57-2.07c.83-10.73,4-21,7.36-31.06,3.57-10.6,9.82-19.71,17.69-27.66,1.16-1.18,2.35-2.12,2.18-4.12-1.22-14.29,3.15-27.74,6-41.49a310.19,310.19,0,0,0,5-31.7c.68-6.94,2-13.85,2.38-20.86a3.59,3.59,0,0,0,.42-3.09c.19-2.64.38-5.27.56-7.91a6,6,0,0,0,.47-4.08c.16-2.64.31-5.29.47-7.93a4.18,4.18,0,0,0,.05-4c0-2.33,0-4.67,0-7a3.49,3.49,0,0,0,.59-3.06c.12-1,.25-2,.37-2.94a1.46,1.46,0,0,0,.41-2q.3-7.49.58-15c1.17-1.93.65-4,.57-6.07q.19-8,.41-15.92c1.22-3,.67-6,.46-9.09.55-8,1.64-15.9,4.66-23.55,3.58-9.07,8.1-17.39,14.87-24.44,1-.68,2-1.4,2-2.82,6.87-5.78,13.39-12,21.55-16.13,14.52-7.42,29.81-10.7,46-8.76s31.09,7.85,43.73,18.6a4.78,4.78,0,0,0,2.66,2.09C197.3,34.87,206.27,51,208.94,70.29a3.58,3.58,0,0,0,.62,3l.66,15.89c-.08,1.72-.56,3.46.3,5.12q.38,7.94.76,15.87a2,2,0,0,0,.14,2.15c1.56,18.63,1.83,37.33,3.86,55.94,1.54,14.1,2.75,28.23,5.34,42.17,1.81,9.76,4.21,19.4,6.4,29.09a72.65,72.65,0,0,1,1.6,18.3c-.07,2.31.33,4.29,2,5.89,13.46,13.15,19.67,29.79,23,47.81.61,3.27,1.42,6.5,2.14,9.74a3.36,3.36,0,0,0,.71,3c.17,1,.34,1.94.5,2.9a2,2,0,0,0,.59,2.09C258,332.18,258,334.7,253.84,333.17ZM154.64,49.53a4.55,4.55,0,0,1,4.64-.25c18.81,7.66,30.1,21.24,33.38,41.43,1.08,6.64.91,13.27,1.06,19.92,0,1.49-.68,3.87,2,3.6,4.18-.41,7.7,1.37,10.87,2.82,0-6,.35-12-.08-18-.8-11.11.21-22.43-2.37-33.3-7-29.32-24.61-49.14-53.62-58.4C118.8-2.74,81.41,11.45,64.05,40,55.74,53.61,52.24,68.44,51.87,84.15c-.25,10.9,0,21.82,0,32.89,2.07-1,4.67-2.92,7.68-2.68,3.59.28,4.6-1.06,4.42-4.52a64.32,64.32,0,0,1,9.91-37.55c8.37-13.6,19.11-24.47,36.06-26.35,4.12-.46,9-1.63,11.78,3.33-1.17,2.48-3.18,1.23-4.8.93a25.56,25.56,0,0,0-18.25,3.17c-19.11,11.3-29,28.4-30.27,50.29-.67,11.45-.14,23-.11,34.46.1,28.66,16.69,51.16,44,59.75,33.75,10.6,71.57-13.2,76.42-48.32,2.27-16.39,1.13-32.93.81-49.38-.44-22.09-10.28-38.52-31.51-47C156.22,52.5,154.53,51.87,154.64,49.53ZM83.56,230.26c18.15-6.52,18.15-6.52,18.15-24.34a14.68,14.68,0,0,1,0-2c.55-3.92-.86-6.21-4.61-8.19a57.8,57.8,0,0,1-24.3-24.36c-2.79-5.24-4.55-10.62-12.43-10.93-5.51-.22-8.11-6.23-11.87-11.49-.7,7-1.27,13-1.9,19C44.31,190.15,42,212.29,36,233.86a59.67,59.67,0,0,0-2.25,22.91c8.78-6.75,17.36-12.41,27.06-16,3-1.1,3.75-2.91,3.87-6,.59-15.12,1.3-30.24,0-45.36-.13-1.51-.8-3.7,1.76-3.9s2.08,2.05,2.18,3.57c.85,13.28,1.44,26.56.2,39.86-.22,2.36-1.48,5.64.63,7s4.46-1.47,6.84-2.07c1.88-.48,2.5-1.93,2.73-3.73.49-4,1.14-7.89,1.64-11.85A105.74,105.74,0,0,0,80.82,194c-.17-1.6,0-3.17,2.1-3.24s1.79,1.59,1.87,2.87c.24,4,.49,7.95.62,11.93C85.69,213.65,84.2,221.68,83.56,230.26Zm118.6,12.11a16.44,16.44,0,0,0,0-2.13c-2.79-18.07-5.63-36.13-8.35-54.22-.24-1.57-1.39-4.06,1.32-4.57,2.94-.55,2.31,2.17,2.57,3.77,1.64,9.84,3.65,19.65,4.66,29.56,1,9.71,4.74,19.15,3.11,29.15-.06.37.73,1.06,1.26,1.33,6.05,3,11.44,7.16,17.9,11.58.14-19.21-7-36.23-9.23-54.07s-4-35.65-6-54.56c-4.27,8.16-9,13.85-18.1,13.37-2-.11-2.11,1.82-2.7,3.12-6.21,13.75-15.35,24.84-29,31.74-2.42,1.23-3.19,3-3.12,5.62.15,5.49.2,11,0,16.48-.13,3,1.14,4.49,3.74,5.63,6.56,2.86,13,6,19.52,8.91,2.44,1.11,4.95,2,8,3.28-4.28-16.27-6.82-31.77-5.09-47.7.15-1.39-.37-3.31,1.95-3.32,2.68,0,2.08,2.08,2,3.63-.14,3.65-.55,7.3-.55,10.94,0,12.67,3.59,24.84,5.22,37.28a1.51,1.51,0,0,0,1.11,1.39C195.52,239.7,198.39,241.83,202.16,242.37Zm-43.35,27.28c.26-1.8-.92-2.58-1.87-3.46-8.18-7.56-16.46-15-24.5-22.7-2.72-2.61-4.65-2.25-7.15.13-7.84,7.42-15.7,14.83-23.78,22-2.47,2.19-2.7,3.93-1.36,6.79a161.89,161.89,0,0,0,26,38.79c2.39,2.7,3.55,2.23,5.68-.12a155.55,155.55,0,0,0,25.51-37.91C157.9,272,158.36,270.71,158.81,269.65Zm-53.19-57.59h.19a30.63,30.63,0,0,1,0,5c-.76,4.74,1,7.66,5.38,9.81a156,156,0,0,1,15,8.95,4.41,4.41,0,0,0,5.42.07c5.76-3.63,11.59-7.19,17.54-10.51,2.58-1.44,3.31-3.27,3.19-6.05-.19-4.82-.26-9.66,0-14.47.2-3.79-.49-5.09-4.59-3.58-10.07,3.72-20.47,4-31,2-3.56-.67-8.29-4.11-10.11-2.19C104.63,203.16,105.82,208.27,105.62,212.06Zm-8.52,52.3c8.67-8,17-15.78,25.49-23.47,2-1.82.46-2.43-.82-3.2-3.56-2.15-7.52-3.81-10.61-6.49-6-5.24-11.75-4.38-17.92-.58-1.6,1-2.49,1.83-2.37,3.79C91.48,244.54,93.13,254.43,97.1,264.36Zm69.67-26.9c-.49-1.92,1.53-5.19-1.52-6.32-3.87-1.43-7.31-5.85-11.78-3.68-6.11,3-11.73,6.93-17.62,10.36-1.89,1.1-1.75,1.89-.26,3.26q11.6,10.6,23,21.39c2.3,2.17,2.75.86,3.45-1.27A91.17,91.17,0,0,0,166.77,237.46ZM64.13,133.66c0-3.77,0-6.44,0-9.1,0-6.4-3.12-8.12-8.75-4.88a11.41,11.41,0,0,0-4.72,5c-4.32,8.83.61,26.22,9,31.38a14.43,14.43,0,0,0,4.2,1.4c2.25.54,3-.2,2.39-2.63A71.13,71.13,0,0,1,64.13,133.66Zm145.29.07c-.74-6.41-2-12-8.25-14.72-5-2.14-7.45-.51-7.51,4.92-.11,10.42.77,20.91-2,31.15-.58,2.09.2,2.69,2.19,2.45a9,9,0,0,0,5.43-2.19C205.58,149.34,208.14,141.6,209.42,133.73Z"/><path class="cls-3" d="M154.64,49.53c-.11,2.34,1.58,3,3.34,3.67,21.23,8.45,31.07,24.88,31.51,47,.32,16.45,1.46,33-.81,49.38-4.85,35.12-42.67,58.92-76.42,48.32-27.33-8.59-43.92-31.09-44-59.75,0-11.49-.56-23,.11-34.46,1.29-21.89,11.16-39,30.27-50.29a25.56,25.56,0,0,1,18.25-3.17c1.62.3,3.63,1.55,4.79-.93l9,0c1.3.84,2.6.25,3.9,0l8.68.29c0,2.71,1.31,3.46,3.57,2.15,1-.57.66-2.53,2.35-2.62A9.91,9.91,0,0,0,154.64,49.53ZM166,123.3a6.69,6.69,0,0,0-7.15-6.61c-4,.37-6.31,2.75-6.52,6.77A6.84,6.84,0,1,0,166,123.3Zm-67.81-6.74a6.86,6.86,0,0,0-6.63,7.21,6.7,6.7,0,0,0,7.21,6.55c4.1-.36,6.24-2.9,6.44-6.87C105.41,119.71,101.92,116.46,98.21,116.56Zm32.34,53.94a30.37,30.37,0,0,0,10.23-2.65c1.18-.55,2.71-.94,1.68-2.82a2,2,0,0,0-2.87-1,25.68,25.68,0,0,1-21.71.38c-1.42-.6-2.17,0-2.75,1.23-.78,1.58.34,2.09,1.43,2.55C120.45,169.82,124.5,170.61,130.55,170.5Zm31.17-79.3c-4.22-.06-7,.44-9.52,1.77-1,.55-2.83.79-1.73,2.77.83,1.5,1.86,1.43,3.32.82,6.94-2.9,13-1.58,17.81,4.27,1.2,1.45,2.21,2,3.66.66s0-2.46-.67-3.35A17.67,17.67,0,0,0,161.72,91.2Zm-64,0a18.51,18.51,0,0,0-14.91,7.64c-.62.85-1.69,1.83,0,2.85,1.09.66,2,1.06,3-.19,5.1-6.5,11.46-8,19-4.62,1.44.64,2.25-.18,2.77-1.28.73-1.54-.62-2-1.61-2.52A18,18,0,0,0,97.69,91.15Zm30.91,64a9.26,9.26,0,0,0,6.72-3c.67-.77,2-1.68.58-2.85-.89-.75-2-1.32-3.09-.24-2.73,2.75-5.36,2.82-8.08-.05-1-1-2.14-.61-3.09.23-1.37,1.21-.09,2.09.57,2.84A9.38,9.38,0,0,0,128.6,155.17Z"/><path class="cls-4" d="M154.64,49.53a9.78,9.78,0,0,1-5.46-.41c2.69-7,8.51-9.21,15.32-9.81,1.72-.15,4.18.51,3.86-2.41-.27-2.47-2.56-1.61-4.05-1.61-10.21,0-16.56,5.83-21.06,14.31l-8.68-.29a10.65,10.65,0,0,0,.05-1.49c-1-11.27.84-14.16,11.51-17.91,1.56-.55,2.92-1.12,2.29-3.06-.57-1.76-2.07-1.23-3.35-1-11.18,1.77-16.41,10.3-14.4,23.47l-9,0c-2.81-5-7.65-3.79-11.77-3.33-17,1.88-27.69,12.75-36.06,26.35a64.32,64.32,0,0,0-9.91,37.55c.18,3.46-.83,4.8-4.42,4.52-3-.24-5.61,1.64-7.68,2.68,0-11.07-.2-22,0-32.89C52.24,68.44,55.74,53.61,64.05,40,81.41,11.45,118.8-2.74,150.56,7.4c29,9.26,46.65,29.08,53.62,58.4,2.58,10.87,1.57,22.19,2.37,33.3.43,5.93.08,11.91.08,18-3.17-1.45-6.69-3.23-10.87-2.82-2.72.27-2-2.11-2-3.6-.15-6.65,0-13.28-1.06-19.92-3.28-20.19-14.57-33.77-33.38-41.43A4.55,4.55,0,0,0,154.64,49.53Z"/><path class="cls-4" d="M83.56,230.26c.64-8.58,2.13-16.61,1.85-24.75-.13-4-.38-8-.62-11.93-.08-1.28.13-2.94-1.87-2.87s-2.27,1.64-2.1,3.24a105.74,105.74,0,0,1-.12,24.38c-.5,4-1.15,7.89-1.64,11.85-.23,1.8-.85,3.25-2.73,3.73-2.38.6-4.78,3.38-6.84,2.07s-.85-4.62-.63-7c1.24-13.3.65-26.58-.2-39.86-.1-1.52.5-3.78-2.18-3.57s-1.89,2.39-1.76,3.9c1.27,15.12.56,30.24,0,45.36-.12,3.06-.88,4.87-3.87,6-9.7,3.56-18.28,9.22-27.06,16A59.67,59.67,0,0,1,36,233.86c6-21.57,8.3-43.71,10.6-65.86.63-6,1.2-12,1.9-19,3.76,5.26,6.36,11.27,11.87,11.49,7.88.31,9.64,5.69,12.43,10.93a57.8,57.8,0,0,0,24.3,24.36c3.75,2,5.16,4.27,4.61,8.19a14.68,14.68,0,0,0,0,2C101.71,223.74,101.71,223.74,83.56,230.26Z"/><path class="cls-4" d="M202.16,242.37c-3.77-.54-6.64-2.67-9.88-3.79a1.51,1.51,0,0,1-1.11-1.39c-1.63-12.44-5.24-24.61-5.22-37.28,0-3.64.41-7.29.55-10.94.06-1.55.66-3.65-2-3.63-2.32,0-1.8,1.93-1.95,3.32-1.73,15.93.81,31.43,5.09,47.7-3.06-1.24-5.57-2.17-8-3.28-6.52-2.94-13-6.05-19.52-8.91-2.6-1.14-3.87-2.61-3.74-5.63.24-5.49.19-11,0-16.48-.07-2.63.7-4.39,3.12-5.62,13.68-6.9,22.82-18,29-31.74.59-1.3.72-3.23,2.7-3.12,9.09.48,13.83-5.21,18.1-13.37,2,18.91,3.83,36.76,6,54.56s9.37,34.86,9.23,54.07c-6.46-4.42-11.85-8.54-17.9-11.58-.53-.27-1.32-1-1.26-1.33,1.63-10-2.11-19.44-3.11-29.15-1-9.91-3-19.72-4.66-29.56-.26-1.6.37-4.32-2.57-3.77-2.71.51-1.56,3-1.32,4.57,2.72,18.09,5.56,36.15,8.35,54.22A16.44,16.44,0,0,1,202.16,242.37Z"/><path class="cls-5" d="M158.81,269.65c-.45,1.06-.91,2.31-1.48,3.5a155.55,155.55,0,0,1-25.51,37.91c-2.13,2.35-3.29,2.82-5.68.12a161.89,161.89,0,0,1-26-38.79c-1.34-2.86-1.11-4.6,1.36-6.79,8.08-7.15,15.94-14.56,23.78-22,2.5-2.38,4.43-2.74,7.15-.13,8,7.7,16.32,15.14,24.5,22.7C157.89,267.07,159.07,267.85,158.81,269.65Z"/><path class="cls-3" d="M105.62,212.06c.2-3.79-1-8.9,1-11,1.82-1.92,6.55,1.52,10.11,2.19,10.5,2,20.9,1.72,31-2,4.1-1.51,4.79-.21,4.59,3.58-.26,4.81-.19,9.65,0,14.47.12,2.78-.61,4.61-3.19,6.05-6,3.32-11.78,6.88-17.54,10.51a4.41,4.41,0,0,1-5.42-.07,156,156,0,0,0-15-8.95c-4.41-2.15-6.14-5.07-5.38-9.81a30.63,30.63,0,0,0,0-5Z"/><path class="cls-5" d="M97.1,264.36c-4-9.93-5.62-19.82-6.23-30-.12-2,.77-2.81,2.37-3.79,6.17-3.8,11.89-4.66,17.92.58,3.09,2.68,7,4.34,10.61,6.49,1.28.77,2.82,1.38.82,3.2C114.14,248.58,105.77,256.36,97.1,264.36Z"/><path class="cls-5" d="M166.77,237.46a91.17,91.17,0,0,1-4.7,23.74c-.7,2.13-1.15,3.44-3.45,1.27q-11.42-10.8-23-21.39c-1.49-1.37-1.63-2.16.26-3.26,5.89-3.43,11.51-7.39,17.62-10.36,4.47-2.17,7.91,2.25,11.78,3.68C168.3,232.27,166.28,235.54,166.77,237.46Z"/><path class="cls-3" d="M64.13,133.66a71.13,71.13,0,0,0,2.15,21.17c.65,2.43-.14,3.17-2.39,2.63a14.43,14.43,0,0,1-4.2-1.4c-8.42-5.16-13.35-22.55-9-31.38a11.41,11.41,0,0,1,4.72-5c5.63-3.24,8.73-1.52,8.75,4.88C64.14,127.22,64.13,129.89,64.13,133.66Z"/><path class="cls-3" d="M209.42,133.73c-1.28,7.87-3.84,15.61-10.19,21.61a9,9,0,0,1-5.43,2.19c-2,.24-2.77-.36-2.19-2.45,2.82-10.24,1.94-20.73,2-31.15.06-5.43,2.5-7.06,7.51-4.92C207.45,121.69,208.68,127.32,209.42,133.73Z"/><path class="cls-6" d="M166,123.3a6.84,6.84,0,1,1-13.67.16c.21-4,2.51-6.4,6.52-6.77A6.69,6.69,0,0,1,166,123.3Z"/><path class="cls-2" d="M98.21,116.56c3.71-.1,7.2,3.15,7,6.89-.2,4-2.34,6.51-6.44,6.87a6.7,6.7,0,0,1-7.21-6.55A6.86,6.86,0,0,1,98.21,116.56Z"/><path class="cls-2" d="M130.67,49.29c-2-13.17,3.22-21.7,14.4-23.47,1.28-.2,2.78-.73,3.35,1,.63,1.94-.73,2.51-2.29,3.06-10.67,3.75-12.49,6.64-11.51,17.91a10.65,10.65,0,0,1-.05,1.49C133.27,49.54,132,50.13,130.67,49.29Z"/><path class="cls-2" d="M130.55,170.5c-6.05.11-10.1-.68-14-2.29-1.09-.46-2.21-1-1.43-2.55.58-1.2,1.33-1.83,2.75-1.23a25.68,25.68,0,0,0,21.71-.38,2,2,0,0,1,2.87,1c1,1.88-.5,2.27-1.68,2.82A30.37,30.37,0,0,1,130.55,170.5Z"/><path class="cls-2" d="M143.25,49.6c4.5-8.48,10.85-14.29,21.06-14.31,1.49,0,3.78-.86,4.05,1.61.32,2.92-2.14,2.26-3.86,2.41-6.81.6-12.63,2.77-15.32,9.81-1.7.1-1.39,2.06-2.36,2.63C144.56,53.06,143.24,52.31,143.25,49.6Z"/><path class="cls-2" d="M161.72,91.2a17.67,17.67,0,0,1,12.87,6.94c.7.89,2.24,2,.67,3.35s-2.46.79-3.66-.66c-4.82-5.85-10.87-7.17-17.81-4.27-1.46.61-2.49.68-3.32-.82-1.1-2,.69-2.22,1.73-2.77C154.74,91.64,157.5,91.14,161.72,91.2Z"/><path class="cls-2" d="M97.69,91.15A18,18,0,0,1,105.85,93c1,.49,2.34,1,1.61,2.52-.52,1.1-1.33,1.92-2.77,1.28-7.5-3.35-13.86-1.88-19,4.62-1,1.25-1.9.85-3,.19-1.65-1-.58-2,0-2.85A18.51,18.51,0,0,1,97.69,91.15Z"/><path class="cls-2" d="M128.6,155.17a9.38,9.38,0,0,1-6.39-3.07c-.66-.75-1.94-1.63-.57-2.84,1-.84,2.11-1.27,3.09-.23,2.72,2.87,5.35,2.8,8.08.05,1.07-1.08,2.2-.51,3.09.24,1.39,1.17.09,2.08-.58,2.85A9.26,9.26,0,0,1,128.6,155.17Z"/></g></g></svg>