<svg xmlns="http://www.w3.org/2000/svg" viewBox="0 0 322.54 359.53"><defs><style>.cls-1{fill:#4a7bac;}.cls-2{fill:#181513;}.cls-3{fill:#c0d8c8;}.cls-4{fill:#f3c9b2;}.cls-5{fill:#fce5ad;}.cls-6{fill:#fefefe;}</style></defs><g id="Layer_2" data-name="Layer 2"><g id="Layer_1-2" data-name="Layer 1"><path class="cls-1" d="M318.4,356.75c-1.16.09-2.31.26-3.47.26q-74.16,0-148.33,0c-.82,0-1.65-.09-2.48-.14,1.08-3.83,2.09-7.68,3.26-11.49,12.87-41.64,24-83.76,33.93-126.18.83-3.55,1.68-4.58,5.49-2.82q26.73,12.39,53.2,25.33c14.48,7.13,26.8,16.63,35.67,30.31,6.36,9.8,9.5,20.78,12.31,32C312.36,321.39,316.44,338.86,318.4,356.75Z"/><path class="cls-1" d="M158.51,356.64a23.09,23.09,0,0,1-2.95.37q-75.65,0-151.3-.07C7.32,338.06,11,319.31,15.07,300.6c5.24-24.24,17.17-43.61,38.94-56,20-11.35,41.21-20.3,62.44-29.15,3.29-1.37,3.49.22,4,2.7a944.17,944.17,0,0,0,23.89,95.37C148.81,328,153.77,342.28,158.51,356.64Z"/><path class="cls-2" d="M158.51,356.64c-4.74-14.36-9.7-28.65-14.18-43.08a944.17,944.17,0,0,1-23.89-95.37c-.5-2.48-.7-4.07-4-2.7C95.22,224.34,74,233.29,54,244.64c-21.77,12.35-33.7,31.72-38.94,56C11,319.31,7.32,338.06,4.26,356.94c-3.36,0-5.06-2.57-3.89-6.34,3.48-11.27,4.52-23,7-34.49a.81.81,0,0,0,.43-1.2C9.93,306,11.19,296.78,13.68,288c3.29-11.63,8.83-22.44,18.24-30.7a35.34,35.34,0,0,0,3.27-3.73c.81-.23.73-.93.79-1.55.43-.45.86-.89,1.28-1.34l1.13-.55C46.1,243.05,55.59,239,64.64,234c14.32-7.84,29.8-13.1,44.28-20.53a4.58,4.58,0,0,1,1.9-.3,2.52,2.52,0,0,0,2.43-1.46c.62-1.6-1-1.74-1.9-2.34-6-4.22-12.22-8.66-15.23-15.48-3.2-7.28-7.65-14.43-6.68-23,.33-3-2.68-2.92-3.62-3-7.88-.56-10.34-6.71-12.38-12.43a51.55,51.55,0,0,1-1-31.87c1.22-4.33,3.05-7.76,7.88-8.73,1.75-.35,3-1.26,2.61-3.43A7.43,7.43,0,0,1,83,109c1.31-7.68-.22-13.8-6.41-19.63-7.58-7.15-9.69-16.82-8.3-27.46,1.23-9.42,5.6-16.42,12.25-22.95,8.22-8.06,18.35-12,28.77-15.47a35.87,35.87,0,0,0,9.95-5C138.84,4.05,160.66-2.72,185,1c15.73,2.42,29.56,9.31,34.57,25.53A35.3,35.3,0,0,0,233,45.66c8.7,6.53,12.1,16.07,11.71,26.87-.47,13.15-1.08,26.29-1.64,39.44-.74,1.37-1,2.63.77,3.44,8.48,7.61,7.62,17.75,6.89,27.52a42.09,42.09,0,0,1-4.68,17c-3.41,6.33-8.09,8.86-15.49,7.85-1.66-.23-2.19.28-2.48,2-2.67,15.77-10.7,28.55-22.67,38.84-2,1.72-1.46,2.58,0,2.93,5.84,1.4,11,4.67,16.35,6.95,5.61,2.36,11.44,4.62,16.88,7.5,11,5.83,21.84,12,32.9,17.68,9,4.66,16.09,11.62,22.38,19.24,8.58,10.37,13.55,22.59,16.87,35.64q6.78,26.65,11.27,53.75c.44,2.62,1.68,6.44-3.7,4.4-2-17.89-6-35.36-10.42-52.78-2.81-11.18-6-22.16-12.31-32-8.87-13.68-21.19-23.18-35.67-30.31q-26.44-13-53.2-25.33c-3.81-1.76-4.66-.73-5.49,2.82-10,42.42-21.06,84.54-33.93,126.18-1.17,3.81-2.18,7.66-3.26,11.49C162.07,361.39,160.27,359.36,158.51,356.64ZM185.26,219c-1.32-.77-2.63-.14-3.86.17a89.64,89.64,0,0,1-31.21,2.18c-3.89-.39-7.76-1-11.63-1.57a218,218,0,0,0,20.35,15.93,1.85,1.85,0,0,0,2.31,0c7.87-5.74,16.59-10.27,23.93-16.77l.7-.27-.52-.27Zm7.86-150.09c-1.39-.2-2.73.21-3.89-1.44-7.92-11.32-17.68-12.26-27.33-2.54-4.45,4.47-8.54,9.32-12.67,14.11-8.84,10.23-20,15.86-33.44,16.64a120.44,120.44,0,0,1-15,0c-3.08-.21-4.12.75-4.25,3.68-1.08,22.93-3,45.85-3.1,68.78-.1,17.52,8.28,31.08,24.25,39.54,21.59,11.42,44.1,12.92,67.32,6.6,13.79-3.76,23.88-12.38,31.54-24.45,9.35-14.75,9.51-31.18,10-47.66a3.77,3.77,0,0,0-1.15-3.15c-5-4.52-5.68-10.56-6.34-16.79-1.85-17.73,2.45-36-4.77-53.25,1.92-1.22,3.15-1.69,4.36,1.24a50,50,0,0,1,4.24,20.84q-.53,15.48.24,30.92c.2,3.95.49,8,3.73,12.16v-5.11c0-9.71,1-11.9,8.23-14,3.35-1,4-2.77,4.13-5.68.5-9.14,1-18.29,1.76-27.41,1.47-17.81-3.32-32.33-20.73-40.39-1.67-.77-1.84-2-2-3.56-1.75-16.24-10.72-26.76-26.4-31.34-17.22-5-34-3.1-50.25,3.63-14.83,6.14-27,17.47-42.84,21.85-3.42.95-6.56,3.26-9.55,5.33C67.19,52.7,66.2,75.3,86.82,93c1.66,1.43,1.43,2.6,1.06,4.31-1,4.91-1.07,9.91-1.09,14.92,0,2.33,1.27,3.58,3.21,3.69,2.44.13,1.4-2.11,1.52-3.31.6-6,1.07-11.92,1.52-17.89.19-2.52.7-3.59,3.91-3.27,9.1.9,18.23.88,27.28-1.12,12.63-2.8,20.34-12,28.17-21.13,3.47-4,6.8-8.22,11.3-11.22,7.25-4.84,14.77-4.91,22.06-.53C189.87,59.93,193.64,63.21,193.12,68.92Zm37.37,73c-.25,5.72-.43,11-.74,16.33s.62,6.1,5.72,5.52a7.31,7.31,0,0,0,5.73-3.55,43.54,43.54,0,0,0,3.45-37.84c-1.05-3-3.57-5.05-7.09-4s-7.39,2.24-7.13,7.46C230.71,131.37,230.49,136.87,230.49,141.94Zm-43,117.16c3.51-14.24,6.87-27.85,10.23-41.45-11.64,6.34-22.24,13.42-32.82,20.52-1.54,1-.66,1.9.31,2.7Zm-54.07,0c7.73-6.61,14.77-12.58,21.73-18.64,2.08-1.81-.24-2.52-1.22-3.24-6.4-4.73-12.86-9.38-19.33-14-3.23-2.31-6.52-4.53-10.69-7.42C127.16,230.74,130.17,244.44,133.39,259.12Zm-42.45-122c.09-1.66.2-3.32.27-5s.12-3.33.16-5c.16-5.49-1.51-7.77-6.61-8.68s-7.08,2.44-8.09,6.32c-3,11.68-2.2,23.08,3.39,33.95a9,9,0,0,0,5.47,4.81c2.18.66,3.69.69,3.82-2.5C89.67,153.06,90.38,145.09,90.94,137.12Zm84.54,163.21c.43-.31.86-.45.93-.7,3.14-11.35,6.23-22.72,9.35-34.08.28-1,.41-2-.47-2.75-2.81-2.31-5.41-5.58-8.63-6.41-1.65-.42-1.93,4.65-3.16,7.1-1,1.92-1.71,3.95-2.55,5.94s-1.83,3.69-1.22,6.12C171.81,283.74,173.57,292,175.48,300.33Zm-32-3.21,1,0c1.88-7.84,3.81-15.67,5.56-23.55.21-1-.48-2.21-.9-3.27-1.53-3.85-3.11-7.68-4.7-11.5-.34-.82-.1-2.12-1.6-2.06-2.53.12-8.09,7.28-7.44,9.78C138.06,276.75,140.79,286.93,143.49,297.12Z"/><path class="cls-3" d="M243.86,115.41c-1.77-.81-1.51-2.07-.77-3.44C244.22,112.92,244,114.17,243.86,115.41Z"/><path class="cls-3" d="M7.76,314.91a.81.81,0,0,1-.43,1.2A.79.79,0,0,1,7.76,314.91Z"/><path class="cls-4" d="M214.33,69c7.21,17.24,2.91,35.52,4.76,53.25.66,6.23,1.38,12.27,6.34,16.79a3.77,3.77,0,0,1,1.15,3.15c-.48,16.48-.64,32.91-10,47.66-7.66,12.07-17.75,20.69-31.54,24.45-23.22,6.32-45.73,4.82-67.32-6.6-16-8.46-24.35-22-24.25-39.54.12-22.93,2-45.85,3.1-68.78.13-2.93,1.17-3.89,4.25-3.68a120.44,120.44,0,0,0,15,0c13.47-.78,24.6-6.41,33.44-16.64,4.13-4.79,8.22-9.64,12.67-14.11,9.65-9.72,19.41-8.78,27.33,2.54,1.16,1.65,2.5,1.24,3.89,1.44l13.18,0c1.37.74,2.73,1.07,4.09,0Zm-60.61,95.21a18.66,18.66,0,0,0,8.55-1.92c3.33-1.74,4.79-4.47,4.1-8.25-.22-1.2-.67-2.63-1.86-2.65-1.55,0-2.21,1.5-2,2.86.6,4.26-2.38,5.05-5.39,5.65a20.08,20.08,0,0,1-7.92.35c-4.27-.86-8.76-1.37-6.27-7.73a2.22,2.22,0,0,0-1.49-2.81c-1.59-.64-1.86,1-2.33,1.9a7.83,7.83,0,0,0,3.32,10.66C145.43,164,148.74,164.17,153.72,164.22Zm-.28,21.09c8.74,0,15.65-3.8,21.26-10.25.79-.9,2.27-1.8.58-3.25-1.34-1.16-2.3-.69-3.33.48-7.78,8.84-17.16,11.46-28.24,7.05-1.61-.64-2.57-.23-3.14,1.25s.67,1.94,1.73,2.41A27.86,27.86,0,0,0,153.44,185.31Zm-17.51-51.66c.28-3.92-2.66-7.46-6.15-7.33-3.72.14-6.21,2.09-6.57,6a6.39,6.39,0,0,0,12.72,1.3Zm57.32-.43c-.06-4-3.3-7.24-6.74-6.87-3.79.4-5.95,2.76-6.17,6.53a6.37,6.37,0,0,0,6.74,6.38C191,138.94,192.88,136.57,193.25,133.22Zm-1.93-29.33c2.05.4,3.4.79,3.93-1.1s-.91-2.24-2.19-2.52a27,27,0,0,0-14.77.59c-1.11.38-2.43.58-2,2.23s1.3,2.11,3,1.55A21.38,21.38,0,0,1,191.32,103.89Zm-64.65-4.27c-3.4.09-6,.18-8.59,1.1-1.31.48-3.26.41-2.44,2.75.6,1.71,1.79,1.46,3.22,1.07,3.69-1,7.42-1.67,11.27-.72,1.3.33,2.72.48,3.06-1.43s-.85-2.26-2.32-2.39Z"/><path class="cls-5" d="M206.3,69l-13.18,0c.52-5.71-3.25-9-7.36-11.46-7.29-4.38-14.81-4.31-22.06.53-4.5,3-7.83,7.18-11.3,11.22-7.83,9.11-15.54,18.33-28.17,21.13-9,2-18.18,2-27.28,1.12-3.21-.32-3.72.75-3.91,3.27-.45,6-.92,11.93-1.52,17.89-.12,1.2.92,3.44-1.52,3.31-1.94-.11-3.21-1.36-3.21-3.69,0-5,0-10,1.09-14.92.37-1.71.6-2.88-1.06-4.31C66.2,75.3,67.19,52.7,89.23,37.46c3-2.07,6.13-4.38,9.55-5.33,15.82-4.38,28-15.71,42.84-21.85,16.26-6.73,33-8.66,50.25-3.63,15.68,4.58,24.65,15.1,26.4,31.34.17,1.59.34,2.79,2,3.56,17.41,8.06,22.2,22.58,20.73,40.39-.75,9.12-1.26,18.27-1.76,27.41-.16,2.91-.78,4.69-4.13,5.68-7.2,2.13-8.2,4.32-8.23,14v5.11c-3.24-4.15-3.53-8.21-3.73-12.16q-.78-15.45-.24-30.92a50,50,0,0,0-4.24-20.84c-1.21-2.93-2.44-2.46-4.35-1.24L210.39,69c-.4-7.17-3.24-12.77-10.22-15.62-1-.39-2.24-1.31-2.9.39-.42,1.09-.59,2.49.84,3C204,58.7,205.56,63.54,206.3,69ZM172.18,33.67a27.7,27.7,0,0,0-8.11,1.72c-7.85,3-12.84,9.4-17.83,15.56-9,11.15-20.47,17.16-34.74,17.93-1.38.07-3.32-.47-3.23,1.93s1.89,2,3.33,1.9A55.11,55.11,0,0,0,129.08,69c10.42-4,17.33-12,24.23-20.19,5.66-6.68,12-12.07,21.63-11a2,2,0,0,0,2.4-1.86c.36-1.74-.82-1.91-2-2C174.31,33.84,173.31,33.77,172.18,33.67ZM114.37,53.36c11.11,0,18.37-7.06,25.38-14.18,9.07-9.22,19-16.18,32.67-15.38,1.7.1,3.1-.33,2.94-2.36s-1.85-1.58-3.08-1.6c-9.61-.16-18.52,2.22-26,8.34-5.28,4.29-10,9.23-15.16,13.7s-11,8.13-18.38,7.55c-1.85-.14-4.49-1.4-4.6,1.78-.09,2.72,2.75,1.56,4.28,2.12A6.22,6.22,0,0,0,114.37,53.36Z"/><path class="cls-4" d="M230.49,141.94c0-5.07.22-10.57-.06-16-.26-5.22,3.49-6.34,7.13-7.46s6,1,7.09,4a43.54,43.54,0,0,1-3.45,37.84,7.31,7.31,0,0,1-5.73,3.55c-5.1.58-6-.31-5.72-5.52S230.24,147.66,230.49,141.94Z"/><path class="cls-6" d="M187.46,259.1l-22.28-18.23c-1-.8-1.85-1.67-.31-2.7,10.58-7.1,21.18-14.18,32.82-20.52C194.33,231.25,191,244.86,187.46,259.1Z"/><path class="cls-6" d="M133.39,259.12c-3.22-14.68-6.23-28.38-9.51-43.32,4.17,2.89,7.46,5.11,10.69,7.42,6.47,4.64,12.93,9.29,19.33,14,1,.72,3.3,1.43,1.22,3.24C148.16,246.54,141.12,252.51,133.39,259.12Z"/><path class="cls-4" d="M90.93,137.12c-.55,8-1.26,15.94-1.58,23.92-.13,3.19-1.64,3.16-3.82,2.5a9,9,0,0,1-5.47-4.81c-5.59-10.87-6.44-22.27-3.39-33.95,1-3.88,3.13-7.22,8.09-6.32s6.77,3.19,6.61,8.68c0,1.67-.08,3.33-.16,5S91,135.46,90.93,137.12Z"/><path class="cls-6" d="M175.48,300.33c-1.91-8.32-3.67-16.59-5.75-24.78-.61-2.43.4-4.17,1.22-6.12s1.58-4,2.55-5.94c1.23-2.45,1.51-7.52,3.16-7.1,3.22.83,5.82,4.1,8.63,6.41.88.72.75,1.73.47,2.75-3.12,11.36-6.21,22.73-9.35,34.08C176.34,299.88,175.91,300,175.48,300.33Z"/><path class="cls-4" d="M185.15,218.92c-7.34,6.5-16.06,11-23.93,16.77a1.85,1.85,0,0,1-2.31,0,218,218,0,0,1-20.35-15.93c3.87.53,7.74,1.18,11.63,1.57a89.64,89.64,0,0,0,31.21-2.18c1.23-.31,2.54-.94,3.86-.17Z"/><path class="cls-6" d="M143.49,297.12c-2.7-10.19-5.43-20.37-8.09-30.56-.65-2.5,4.91-9.66,7.44-9.78,1.5-.06,1.26,1.24,1.6,2.06,1.59,3.82,3.17,7.65,4.7,11.5.42,1.06,1.11,2.29.9,3.27-1.75,7.88-3.68,15.71-5.56,23.55Z"/><path class="cls-4" d="M185.26,219l.07-.63.52.27-.7.27Z"/><path class="cls-2" d="M153.72,164.22c-5-.05-8.29-.23-11.31-1.94a7.83,7.83,0,0,1-3.32-10.66c.47-.9.74-2.54,2.33-1.9a2.22,2.22,0,0,1,1.49,2.81c-2.49,6.36,2,6.87,6.27,7.73a20.08,20.08,0,0,0,7.92-.35c3-.6,6-1.39,5.39-5.65-.19-1.36.47-2.9,2-2.86,1.19,0,1.64,1.45,1.86,2.65.69,3.78-.77,6.51-4.1,8.25A18.66,18.66,0,0,1,153.72,164.22Z"/><path class="cls-2" d="M153.44,185.31A27.86,27.86,0,0,1,142.3,183c-1.06-.47-2.37-.8-1.73-2.41s1.53-1.89,3.14-1.25c11.08,4.41,20.46,1.79,28.24-7.05,1-1.17,2-1.64,3.33-.48,1.69,1.45.21,2.35-.58,3.25C169.09,181.51,162.18,185.32,153.44,185.31Z"/><path class="cls-2" d="M135.93,133.65a6.39,6.39,0,0,1-12.72-1.3c.36-3.94,2.85-5.89,6.57-6C133.27,126.19,136.21,129.73,135.93,133.65Z"/><path class="cls-2" d="M193.25,133.22c-.37,3.35-2.3,5.72-6.17,6a6.37,6.37,0,0,1-6.74-6.38c.22-3.77,2.38-6.13,6.17-6.53C190,126,193.19,129.23,193.25,133.22Z"/><path class="cls-2" d="M191.32,103.89a21.38,21.38,0,0,0-12.06.75c-1.68.56-2.59,0-3-1.55s.9-1.85,2-2.23a27,27,0,0,1,14.77-.59c1.28.28,2.76.53,2.19,2.52S193.37,104.29,191.32,103.89Z"/><path class="cls-2" d="M206.3,69c-.74-5.42-2.28-10.26-8.19-12.27-1.43-.48-1.26-1.88-.84-3,.66-1.7,1.93-.78,2.9-.39,7,2.85,9.82,8.45,10.22,15.62C209,70,207.67,69.7,206.3,69Z"/><path class="cls-2" d="M126.67,99.62l4.2.38c1.47.13,2.66.52,2.32,2.39s-1.76,1.76-3.06,1.43c-3.85-.95-7.58-.31-11.27.72-1.43.39-2.62.64-3.22-1.07-.82-2.34,1.13-2.27,2.44-2.75C120.62,99.8,123.27,99.71,126.67,99.62Z"/><path class="cls-2" d="M172.18,33.67c1.13.1,2.13.17,3.12.27,1.22.13,2.4.3,2,2a2,2,0,0,1-2.4,1.86c-9.62-1.08-16,4.31-21.63,11C146.41,57,139.5,65,129.08,69a55.11,55.11,0,0,1-17.48,3.69c-1.44.06-3.26.36-3.33-1.9s1.85-1.86,3.23-1.93c14.27-.77,25.72-6.78,34.74-17.93,5-6.16,10-12.52,17.83-15.56A27.7,27.7,0,0,1,172.18,33.67Z"/><path class="cls-2" d="M114.37,53.36a6.22,6.22,0,0,1-2,0c-1.53-.56-4.37.6-4.28-2.12.11-3.18,2.75-1.92,4.6-1.78,7.39.58,13.14-3,18.38-7.55s9.88-9.41,15.16-13.7c7.51-6.12,16.42-8.5,26-8.34,1.23,0,2.93-.37,3.08,1.6s-1.24,2.46-2.94,2.36c-13.68-.8-23.6,6.16-32.67,15.38C132.74,46.3,125.48,53.35,114.37,53.36Z"/></g></g></svg>